<?xml version="1.0" encoding="UTF-8" standalone="no"?>
<svg
   xmlns:dc="http://purl.org/dc/elements/1.1/"
   xmlns:cc="http://creativecommons.org/ns#"
   xmlns:rdf="http://www.w3.org/1999/02/22-rdf-syntax-ns#"
   xmlns:svg="http://www.w3.org/2000/svg"
   xmlns="http://www.w3.org/2000/svg"
   xmlns:sodipodi="http://sodipodi.sourceforge.net/DTD/sodipodi-0.dtd"
   xmlns:inkscape="http://www.inkscape.org/namespaces/inkscape"
   version="1.1"
   id="Layer_1"
   x="0px"
   y="0px"
   viewBox="0 0 259.0762 298.99158"
   xml:space="preserve"
   sodipodi:docname="reserved.svg"
   inkscape:version="1.0.2 (e86c870879, 2021-01-15, custom)"
   width="259.0762"
   height="298.99158"><metadata
   id="metadata55"><rdf:RDF><cc:Work
       rdf:about=""><dc:format>image/svg+xml</dc:format><dc:type
         rdf:resource="http://purl.org/dc/dcmitype/StillImage" /><dc:title></dc:title></cc:Work></rdf:RDF></metadata><defs
   id="defs53"><style
     id="style854">.cls-1{fill:#669df6;}.cls-1,.cls-2{fill-rule:evenodd;}.cls-2{fill:#4285f4;}</style></defs><sodipodi:namedview
   pagecolor="#ffffff"
   bordercolor="#666666"
   borderopacity="1"
   objecttolerance="10"
   gridtolerance="10"
   guidetolerance="10"
   inkscape:pageopacity="0"
   inkscape:pageshadow="2"
   inkscape:window-width="1920"
   inkscape:window-height="1017"
   id="namedview51"
   showgrid="false"
   inkscape:zoom="1.4355469"
   inkscape:cx="249.60958"
   inkscape:cy="244.78836"
   inkscape:window-x="-8"
   inkscape:window-y="-8"
   inkscape:window-maximized="1"
   inkscape:current-layer="Layer_1"
   inkscape:document-rotation="0"
   fit-margin-top="0"
   fit-margin-left="0"
   fit-margin-right="0"
   fit-margin-bottom="0" />









<g
   id="g20"
   transform="translate(-6.3904221,-3.95017)">
</g>
<g
   id="g22"
   transform="translate(-6.3904221,-3.95017)">
</g>
<g
   id="g24"
   transform="translate(-6.3904221,-3.95017)">
</g>
<g
   id="g26"
   transform="translate(-6.3904221,-3.95017)">
</g>
<g
   id="g28"
   transform="translate(-6.3904221,-3.95017)">
</g>
<g
   id="g30"
   transform="translate(-6.3904221,-3.95017)">
</g>
<g
   id="g32"
   transform="translate(-6.3904221,-3.95017)">
</g>
<g
   id="g34"
   transform="translate(-6.3904221,-3.95017)">
</g>
<g
   id="g36"
   transform="translate(-6.3904221,-3.95017)">
</g>
<g
   id="g38"
   transform="translate(-6.3904221,-3.95017)">
</g>
<g
   id="g40"
   transform="translate(-6.3904221,-3.95017)">
</g>
<g
   id="g42"
   transform="translate(-6.3904221,-3.95017)">
</g>
<g
   id="g44"
   transform="translate(-6.3904221,-3.95017)">
</g>
<g
   id="g46"
   transform="translate(-6.3904221,-3.95017)">
</g>
<g
   id="g48"
   transform="translate(-6.3904221,-3.95017)">
</g>
<g
   id="g868"
   transform="matrix(14.949579,0,0,14.949579,-49.782098,-29.899158)"
   style="stroke-width:0.0668916"><path
     class="cls-1"
     d="M 3.33,7 12,2 20.66,7 v 9.72 L 17.33,14 H 6.67 L 3.33,16.67 Z M 16,8.67 a 4,4 0 1 0 -4,4 4,4 0 0 0 4,-4 z m -1.33,0 A 2.67,2.67 0 1 1 12,6 2.67,2.67 0 0 1 14.67,8.67 Z"
     id="path860"
     style="stroke-width:0.0668916" /><path
     class="cls-2"
     d="m 12,12.67 a 4,4 0 0 0 0,-8 V 2 l 8.66,5 v 9.72 L 17.33,14 H 12 Z m 2.67,-4 A 2.67,2.67 0 0 1 12,11.31 V 6 a 2.67,2.67 0 0 1 2.67,2.66 z"
     id="path862"
     style="stroke-width:0.0668916" /><polygon
     class="cls-1"
     points="16.67,15.33 7.33,15.33 4,18 12,22 20,18 "
     id="polygon864"
     style="stroke-width:0.0668916" /><polygon
     class="cls-2"
     points="12,22 20,18 16.67,15.33 12,15.33 "
     id="polygon866"
     style="stroke-width:0.0668916" /></g></svg>
