<?xml version="1.0" encoding="UTF-8" standalone="no"?>
<svg
   xmlns:dc="http://purl.org/dc/elements/1.1/"
   xmlns:cc="http://creativecommons.org/ns#"
   xmlns:rdf="http://www.w3.org/1999/02/22-rdf-syntax-ns#"
   xmlns:svg="http://www.w3.org/2000/svg"
   xmlns="http://www.w3.org/2000/svg"
   xmlns:xlink="http://www.w3.org/1999/xlink"
   xmlns:sodipodi="http://sodipodi.sourceforge.net/DTD/sodipodi-0.dtd"
   xmlns:inkscape="http://www.inkscape.org/namespaces/inkscape"
   viewBox="0 0 613 145.00001"
   version="1.1"
   id="svg119"
   sodipodi:docname="camp3.svg"
   width="613"
   height="145"
   inkscape:version="1.0.2 (e86c870879, 2021-01-15, custom)">
  <metadata
     id="metadata123">
    <rdf:RDF>
      <cc:Work
         rdf:about="">
        <dc:format>image/svg+xml</dc:format>
        <dc:type
           rdf:resource="http://purl.org/dc/dcmitype/StillImage" />
        <dc:title>Artboard 1</dc:title>
      </cc:Work>
    </rdf:RDF>
  </metadata>
  <sodipodi:namedview
     pagecolor="#ffffff"
     bordercolor="#666666"
     borderopacity="1"
     objecttolerance="10"
     gridtolerance="10"
     guidetolerance="10"
     inkscape:pageopacity="0"
     inkscape:pageshadow="2"
     inkscape:window-width="1920"
     inkscape:window-height="1017"
     id="namedview121"
     showgrid="false"
     inkscape:zoom="1.7739484"
     inkscape:cx="306"
     inkscape:cy="88.796312"
     inkscape:window-x="-8"
     inkscape:window-y="-8"
     inkscape:window-maximized="1"
     inkscape:current-layer="svg119"
     inkscape:document-rotation="0" />
  <defs
     id="defs7">
    <linearGradient
       inkscape:collect="always"
       id="linearGradient854">
      <stop
         style="stop-color:#32495c;stop-opacity:1;"
         offset="0"
         id="stop850" />
      <stop
         style="stop-color:#32495c;stop-opacity:0;"
         offset="1"
         id="stop852" />
    </linearGradient>
    <style
       id="style2">.cls-1,.cls-10{fill:none;}.cls-2{fill:#003d47;}.cls-3{fill:#b6e0ea;}.cls-4{fill:#6ba0a5;}.cls-5{clip-path:url(#clip-path);}.cls-6{fill:#1e5663;}.cls-7{fill:#023035;}.cls-8{fill:#02292b;}.cls-9{fill:#bcbcbc;}.cls-10{stroke:#707071;stroke-miterlimit:10;}.cls-11{fill:#e98f23;}.cls-12{fill:#1b1e1e;}.cls-13{fill:#be6f29;}</style>
    <clipPath
       id="clip-path">
      <rect
         class="cls-1"
         x="-0.49000001"
         y="-0.36000001"
         width="612.48999"
         height="414.70001"
         id="rect4" />
    </clipPath>
    <linearGradient
       inkscape:collect="always"
       xlink:href="#linearGradient854"
       id="linearGradient856"
       x1="571.87018"
       y1="385.94009"
       x2="658.66589"
       y2="387.06754"
       gradientUnits="userSpaceOnUse" />
    <linearGradient
       inkscape:collect="always"
       xlink:href="#linearGradient854"
       id="linearGradient858"
       gradientUnits="userSpaceOnUse"
       x1="73.594696"
       y1="394.03625"
       x2="-5.6811252"
       y2="382.19827" />
  </defs>
  <title
     id="title9">Artboard 1</title>
  <g
     id="Trees"
     transform="matrix(0.31379402,0,0,0.31379402,408.1166,-17.122661)"
     style="fill:#32495c;fill-opacity:1;stroke-width:3.1868">
    <polygon
       class="cls-7"
       points="153.07,259.33 178.26,219.66 204.07,259.33 192.44,259.33 213.72,292.03 201.94,292.03 224.23,326.27 210.42,326.27 235.45,364.72 121.69,364.72 146.11,326.27 132.91,326.27 154.66,292.03 143.42,292.03 164.19,259.33 "
       id="polygon81"
       style="fill:#32495c;fill-opacity:1;stroke-width:3.1868" />
    <polygon
       class="cls-8"
       points="307.6,157.01 357.24,78.84 408.11,157.01 385.19,157.01 427.13,221.46 403.91,221.46 447.82,288.93 420.62,288.93 469.94,364.7 245.77,364.7 293.89,288.93 267.89,288.93 310.73,221.46 288.58,221.46 329.51,157.01 "
       id="polygon83"
       style="fill:#32495c;fill-opacity:1;stroke-width:3.1868" />
    <polygon
       class="cls-2"
       points="70.18,312.02 82.78,292.19 95.68,312.02 89.87,312.02 100.51,328.38 94.62,328.38 105.76,345.5 98.86,345.5 111.37,364.72 54.49,364.72 66.7,345.5 60.1,345.5 70.97,328.38 65.36,328.38 75.74,312.02 "
       id="polygon85"
       style="fill:#32495c;fill-opacity:1;stroke-width:3.1868" />
    <polygon
       class="cls-2"
       points="501.41,293.66 518.39,266.93 535.79,293.66 527.95,293.66 542.29,315.71 534.35,315.71 549.37,338.79 540.07,338.79 556.94,364.7 480.26,364.7 496.72,338.79 487.83,338.79 502.48,315.71 494.9,315.71 508.9,293.66 "
       id="polygon87"
       style="fill:#32495c;fill-opacity:1;stroke-width:3.1868" />
  </g>
  <g
     id="FG"
     transform="matrix(1.0026223,0,0,1,0.62259413,-267.76428)"
     style="fill:url(#linearGradient856);fill-opacity:1;stroke-width:0.998692">
    <g
       class="cls-5"
       clip-path="url(#clip-path)"
       id="g92"
       style="fill:url(#linearGradient856);fill-opacity:1;stroke-width:0.998692">
      <path
         class="cls-7"
         d="m -23.67,363.66 c 33.34,-2.39 43.91,-7.85 64.29,-4.59 20.38,3.26 67.69,0.32 74.38,1.79 6.69,1.47 60.25,4.68 70.67,3.07 10.42,-1.61 43.28,3.43 62,2.05 18.72,-1.38 59.57,-4.65 68.69,-2.32 9.12,2.33 32,-0.39 52,-1.06 20,-0.67 36,-1.59 46.67,-0.46 10.67,1.13 24.07,0.76 44.67,0.46 20.6,-0.3 54.53,-3.73 58.93,-3.53 4.4,0.2 36.16,-3.54 51.28,0 15.12,3.54 41.54,3.94 45.79,2.11 4.25,-1.83 20.66,32.42 20.66,32.42 l 12,184.33 -682.69,-18.66 z"
         id="path90"
         style="fill:url(#linearGradient858);fill-opacity:1;stroke-width:0.998692" />
    </g>
  </g>
  <g
     id="Tent"
     transform="matrix(0.31974997,0,0,0.31974997,285.33741,-22.188659)"
     style="stroke-width:3.12744">
    <rect
       class="cls-9"
       x="434.79001"
       y="362.60001"
       width="2.6700001"
       height="11.17"
       rx="1.33"
       ry="1.33"
       id="rect95"
       style="stroke-width:3.12744" />
    <rect
       class="cls-9"
       x="161.19"
       y="362.60001"
       width="2.6700001"
       height="11.17"
       rx="1.33"
       ry="1.33"
       id="rect97"
       style="stroke-width:3.12744" />
    <polyline
       class="cls-10"
       points="306.95 263.48 433.88 365.72 435.08 367.98 437.45 368.6"
       id="polyline99"
       style="stroke-width:3.12744" />
    <polyline
       class="cls-10"
       points="293.75 263.48 164.6 366.1 163.61 368.37 161.09 368.6"
       id="polyline101"
       style="stroke-width:3.12744" />
    <path
       class="cls-11"
       d="m 300.54,220.14 c -25.9,61.14 -60,115.5 -108.11,163.9 H 408.6 C 356.77,332.75 325.45,280.6 300.54,220.14 Z"
       id="path103"
       style="stroke-width:3.12744" />
    <polygon
       class="cls-12"
       points="325.45,384.22 300.35,280.22 274.45,384.22 "
       id="polygon105"
       style="stroke-width:3.12744" />
    <path
       class="cls-13"
       d="m 247.64,384 h 27.05 L 300.35,280.1 C 284.87,324.88 267.1,360.94 247.64,384 Z"
       id="path107"
       style="stroke-width:3.12744" />
    <path
       class="cls-13"
       d="M 352.31,384 H 325.26 L 300.44,280.22 C 315.93,325 332.85,360.94 352.31,384 Z"
       id="path109"
       style="stroke-width:3.12744" />
  </g>
</svg>
