<?xml version="1.0" encoding="UTF-8" standalone="no"?>
<svg
   xmlns:dc="http://purl.org/dc/elements/1.1/"
   xmlns:cc="http://creativecommons.org/ns#"
   xmlns:rdf="http://www.w3.org/1999/02/22-rdf-syntax-ns#"
   xmlns:svg="http://www.w3.org/2000/svg"
   xmlns="http://www.w3.org/2000/svg"
   xmlns:sodipodi="http://sodipodi.sourceforge.net/DTD/sodipodi-0.dtd"
   xmlns:inkscape="http://www.inkscape.org/namespaces/inkscape"
   id="Layer_1"
   data-name="Layer 1"
   viewBox="0 0 298 105"
   version="1.1"
   sodipodi:docname="TravelingLogoWhite.svg"
   inkscape:version="1.0.2 (e86c870879, 2021-01-15, custom)"
   width="298"
   height="105"
   inkscape:export-filename="D:\OneDrive\Pictures\TravelingLogo.png"
   inkscape:export-xdpi="96"
   inkscape:export-ydpi="96">
  <metadata
     id="metadata21">
    <rdf:RDF>
      <cc:Work
         rdf:about="">
        <dc:format>image/svg+xml</dc:format>
        <dc:type
           rdf:resource="http://purl.org/dc/dcmitype/StillImage" />
        <dc:title>creditcard</dc:title>
      </cc:Work>
    </rdf:RDF>
  </metadata>
  <defs
     id="defs19" />
  <sodipodi:namedview
     pagecolor="#ffffff"
     bordercolor="#666666"
     borderopacity="1"
     objecttolerance="10"
     gridtolerance="10"
     guidetolerance="10"
     inkscape:pageopacity="0"
     inkscape:pageshadow="2"
     inkscape:window-width="1920"
     inkscape:window-height="1017"
     id="namedview17"
     showgrid="false"
     inkscape:zoom="1.5735382"
     inkscape:cx="230.26183"
     inkscape:cy="256"
     inkscape:window-x="-8"
     inkscape:window-y="-8"
     inkscape:window-maximized="1"
     inkscape:current-layer="Layer_1"
     inkscape:document-rotation="0" />
  <title
     id="title2">creditcard</title>
  <polygon
     points="305.58,474.02 305.57,474.03 305.59,474.02 "
     fill="#fac60f"
     id="polygon4"
     transform="matrix(0.2,0,0,0.2,0.23256,-0.087996)" />
  <path
     d="m 96.78456,59.768004 c 1.214,-0.352 3.112,-0.218 3.28,-1.586 0.224,-1.8 -1.67,-1.416 -2.856,-1.626 -1.052,-0.19 -2.098,-0.424 -3.144,-0.638 2.95,-6.414 3,-6.882 2.292,-6.95 -6,-0.58 -2.718,-5.102 -3.462,-7.894 2.066,-0.344 4,-0.972 5.632,-2.45 -0.956,-1.11 -2.778,0 -3.328,-1.6 -0.964,-3.92 -5.788,-2.55 -7.49,-5.464 a 5,5 0 0 0 -0.024,-0.818 c 0.47,-0.476 0.94,-0.954 1.41,-1.436 v 0 l 1.986,-0.35 v 0 c 1.514,-0.47 2.29,-2.022 1.362,-2.826 -1.94,-1.684 -4.254,-1.066 -6.28,0.386 -4.744,0.29 -5.732,-3.956 -8,-6.643999 l 1.654,-2.35 c 2.42,-0.862 2.42,-3.666 4.128,-5.11 1,0.472 2.11,0.8 2.668,-0.486 0.518,-1.2 -0.178,-2.09 -1.4,-2.232 -2.2,-0.254 -3.586,0.842 -4.21,2.932 v 0 c -3.544,4.254 -7.772,1.4 -11.752,1.132 -2.294,0 -4.72,0.51 -6.444,-1.672 q 0.044,-1.25 0.088,-2.496 c 2.672,-2.684 3,-5.734 0.978,-9.7 -0.824,4.82 -3.816,7.2 -7.894,8.428 v 0 l -8.004,3.58 -1.7,-1.046 c -3.484,-0.684 -4.102,-4.78 -7.142,-6 -0.974,-0.75 -2.164,-2.488 -3.146,-1.44 -1.542,1.652 0.852,2.902 1.38,4.4 -0.058,1.984 1.502,3.02 2.56,4.35 v 0 l -2.124,2.312 c -1.954,0.47 -3.77,0.032 -5.514,-0.834 v 0 0 l -0.3,-0.17 v 0 c -0.382,-1.542 -0.4,-3.24 -1.904,-4.284 v 0 c -0.186,-2.472 -1,-4.614 -3.372,-5.746 -0.376,-0.178 -1.4,0.158 -1.556,0.506 -1.23,2.816 1.88,3.992 2.48,6.152 0.096,0.334 0.6,0.556 0.916,0.832 l -0.856,2.832 v 0 0 c -1.186,1.504 -3.29,2.512 -2.682,4.984 -0.512,1.279999 -1.698,1.219999 -2.768,1.399999 a 2.298,2.298 0 0 0 -1.122,-0.439999 c -0.8,-2.4 -2.580001,-4.888 -4.822001,-3.214 -1.956,1.464 -0.648,4.179999 1.778,5.469999 v 0 c 0.452,0.58 0.91,1.16 1.37,1.742 v 0 c 0.024,0.508 0.046,1.01 0.07,1.518 l -2.438,2.416 v 0 c -0.914,-0.122 -1.826,-0.242 -2.738,-0.368 -1.708,-0.972 -3.894,-2.03 -4.858,0.294 -0.872,2.102 1.298,2.7 3.068,2.964 q 0.382,1.4 0.768,2.79 v 0 0 q -2.13,3.072 -4.266,6.14 v 0 c -1.458,0.824 -4.51,-1.11 -4.428,1.73 0.044,1.67 2.812,0.962 4.386,1.222 l 1.344,2.382 -3.842,3.73 c -1.3,-0.032 -2.876,-0.15 -3.508,1.06 -0.738,1.418 0.544,2.578 1.68,3 3.914,1.424 2.612,3.35 0.742,5.448 -2.96,4.754 4.566,4.28 3.936,7.868 -0.516,2.4 -5.704,2.728 -2.914,6.6 1.972,1.918 4.272,0.768 6.456,0.688 v 0 0 c 0.8,1.234 2.566,2.82 2.26,3.646 -2.056,5.614 2.046,6.874 5.600001,8.616 0.142,1.43 0.432,2.732 2.318,2.612 1.588,1.268 -1.8,6.138 2.298,5.6 0.37,0.064 0.856,-0.03 1.498,-0.344 3.072,-1.742 5.918,-2.886 5.934,2.518 0,3.424 2.106,3.288 4.288,2.368 1.676,-0.704 2.772,-2.786 5.048,-2.056 1.912,1.24 4.622,0.686 6.162,2.756 v 0 c 3.58,2.727996 7.2,6.279996 10.356,-0.458 1.2,-1.022 2.476,-1.984 2.68,-3.728 l 3.87,1.286 c 5.436,6.309996 3.8,-3.46 6.692,-2.94 l 2.576,0.188 c 1.14,1.776 2.292,4.474 4.766,2.636 1.51,-1.12 1.624,-3.6 -1.47,-4.014 v 0 0 c -0.504,-1.77 1.874,-2.1 1.816,-3.646 v 0 c 1.492,-3.134 5.742,-2.516 7.4,-5.432 l 0.028,0.012 c 1.826,1.098 3.732,1.842 5.92,1.39 1.814,-1.758 2.422,-3.982 2.492,-6.414 2.724,-3.4 -0.156,-3.576 -2.374,-4.13 v 0 c -0.71,-1.92 0.26,-3.588 0.778,-5.326 0.15,-0.366 0.284,-0.738 0.4,-1.116 2.07,-0.074 4.554,0.916 5.786,-2.12 -2,-1.154 -3.894,-0.738 -5.75,-0.692 -0.918,-2.5 0.646,-3.644 2.504,-4.63 z m -35.434,34.93 z"
     fill="#fac60f"
     id="path6"
     style="fill:#7d4013;fill-opacity:0.835821;stroke-width:0.2" />
  <path
     d="m 292.15111,36.364496 c 0.6,-1.38 -1.93,-5.94 -3.38,-6.11 -5.12,-0.6 -7,3.61 -7.42,7.82 -0.25,2.45 1.25,5.07 2.49,9.51 3.71,-4.77 6.74,-7.66 8.31,-11.22 z"
     fill="#fac60f"
     id="path8" />
  <path
     style="fill:#f3f3f3;fill-opacity:0.858209;stroke-width:0.128637"
     d="M 70.79508,82.326874 70.408344,82.038649 70.009185,63.11989 69.610049,44.20113 68.936665,44.59119 c -3.709211,2.148635 -4.113967,2.342663 -4.90726,2.352536 -0.953938,0.01116 -1.749206,-0.294792 -3.235854,-1.247822 -2.418016,-1.55003 -5.446768,-3.402714 -5.491052,-3.358853 -0.02575,0.02547 -0.743912,2.78871 -1.595734,6.140326 l -1.5488,6.093856 4.688012,4.082292 c 3.669447,3.195308 4.730496,4.187437 4.883493,4.566213 0.446092,1.104339 0.291073,2.493745 -1.006067,9.017498 -0.667115,3.355193 -1.328406,6.539974 -1.469529,7.077295 -0.558379,2.126049 -1.447388,3.216888 -2.52848,3.102585 -0.730565,-0.07731 -1.153315,-0.3416 -1.517587,-0.948967 -0.429522,-0.716151 -0.53191,-2.60863 -0.281624,-5.204369 0.106213,-1.100781 0.345353,-3.563938 0.531587,-5.473686 0.186181,-1.909748 0.338479,-3.506114 0.338279,-3.547494 -3.58e-4,-0.08513 -0.551627,-0.493375 -7.116902,-5.271508 -4.996329,-3.636221 -5.790722,-4.337603 -6.568045,-5.798887 -0.363497,-0.683309 -0.45244,-1.019903 -0.522615,-1.978094 -0.04648,-0.635048 -0.02249,-1.558252 0.05548,-2.051536 0.108462,-0.695195 2.375407,-8.684744 4.574827,-16.123479 0.262857,-0.889065 0.989426,-1.606445 1.724263,-1.70252 0.728917,-0.09518 7.25538,1.427189 8.058919,1.879988 0.558576,0.314743 1.409498,0.846143 6.031836,3.766902 l 2.593577,1.63882 0.627656,-0.25214 c 0.345228,-0.138747 1.459007,-0.618984 2.475071,-1.067382 l 1.847371,-0.815265 0.005,-2.150489 0.005,-2.150515 0.437969,-0.36088 c 0.605686,-0.499116 1.344949,-0.509436 1.967778,-0.02748 l 0.450391,0.348501 0.09422,1.499313 c 0.07922,1.258121 0.126956,1.489994 0.297319,1.441487 0.111709,-0.03173 0.586067,-0.08423 1.054203,-0.116403 0.817682,-0.0563 0.869713,-0.04246 1.324527,0.351674 1.124603,0.974793 0.717871,1.950702 -1.421469,3.410646 l -1.151793,0.785996 0.34243,19.56422 c 0.247912,14.16974 0.301791,19.638064 0.195181,19.832022 -0.41168,0.748617 -1.655838,0.973744 -2.383679,0.43135 z M 34.058132,81.917239 c -1.103606,-0.379826 -0.764453,-1.781365 1.550827,-6.408419 1.495893,-2.98953 3.679267,-7.593992 4.036468,-8.512393 0.117708,-0.302789 0.406658,-1.949342 0.641945,-3.659031 0.557879,-4.053268 0.492803,-3.815699 0.866195,-3.162418 0.416852,0.729314 2.770268,2.731002 4.55456,3.873901 0.813462,0.521034 1.480374,1.024729 1.482024,1.119351 0.0016,0.09451 -0.229668,0.886874 -0.513792,1.760609 -0.587893,1.807083 -0.722569,2.032456 -4.343885,7.269198 -3.101725,4.485378 -3.721382,5.296241 -4.872148,6.375531 -1.328778,1.246257 -2.426065,1.679617 -3.402194,1.343671 z M 33.114219,51.328315 c -2.748274,-0.621151 -4.73637,-1.684466 -5.487281,-2.934768 -1.270075,-2.114765 1.218495,-7.248215 5.845828,-12.058905 2.083088,-2.165617 4.399764,-3.301478 6.828254,-3.34793 2.605624,-0.04982 3.353312,1.141336 2.437061,3.882638 -2.022658,6.051672 -4.19806,12.386206 -4.356382,12.685463 -0.344403,0.650912 -1.252654,1.40507 -2.013435,1.671865 -0.849572,0.297918 -2.199119,0.340056 -3.254045,0.101658 z m 21.25016,-19.306117 c -2.64161,-0.140761 -5.002424,-1.855613 -5.713872,-4.150572 -0.599461,-1.933722 0.0019,-3.976609 1.606657,-5.4574 3.86373,-3.565392 10.714226,-1.133671 10.807216,3.836209 0.04549,2.427921 -1.692574,4.688808 -4.204458,5.469422 -0.601137,0.186784 -1.842048,0.337151 -2.495543,0.302341 z"
     id="path6243" />
  <g
     aria-label="HIKE TRAVEL"
     transform="scale(0.98752314,1.0126345)"
     id="text6267"
     style="font-style:normal;font-weight:normal;font-size:35.7011px;line-height:1.25;font-family:sans-serif;fill:#253745;fill-opacity:1;stroke:none;stroke-width:0.892528">
    <path
       d="m 121.77529,37.164646 2.57996,0.0523 1.01107,-0.331211 h 1.34227 l 1.06337,0.209186 -0.0523,3.713054 -0.0174,4.096562 -0.78445,3.503867 0.78445,-0.819312 0.34864,1.673489 -0.34864,0.662423 0.15689,4.602095 0.19175,3.102927 q -0.27891,0.871609 -0.20918,1.568896 l -2.80658,-0.226618 -2.84145,0.261483 -0.15689,-1.289982 q 0.40094,-0.209186 0.13946,-2.022132 l 0.17432,-0.976202 -0.33121,-3.678189 0.0349,-1.185389 -3.62589,0.0523 q -0.78445,-0.139457 -1.42944,0.139457 L 113.98311,49.925 q -0.62756,0.278915 -0.57527,1.586328 l 0.24405,3.102928 -0.0349,1.60376 -0.0174,2.370776 q -0.0872,0.453237 -0.67986,0.644991 l -2.94604,-0.261483 -2.66712,0.331211 0.31378,-2.0047 v -5.700322 l 0.34864,-3.67819 -0.34864,-1.342277 0.34864,-0.993634 -0.54039,-8.419742 1.34227,-0.679855 4.35805,0.313779 0.36607,0.993634 q -0.0349,1.167956 -0.22661,1.882676 l 0.3835,5.229653 -0.66242,1.673489 2.33591,-0.662423 4.0094,-0.331211 q 1.25512,0.627558 3.25982,0.383508 l -0.24405,-0.71472 -0.33121,-1.011066 0.33121,-0.331211 -0.27891,-1.464303 -0.31378,-3.381843 z m 2.57996,1.725786 0.34864,0.993634 v -0.993634 z m 1.01107,0.993634 q 0.22662,1.394574 1.01106,2.684555 z m -16.40368,4.358044 v -0.662423 h -0.33121 z m 2.68455,-0.331211 q 0.34865,1.063362 1.34228,1.673489 z m 14.05034,0.993634 q 0.13946,0.348643 0.67985,0.679855 l 0.33121,-0.331212 z m -16.05504,0.679855 q 0.5927,0.749583 1.67349,0.993634 l 0.33121,-0.993634 -1.67349,0.331211 z m -1.01106,0.993634 h 0.66242 v -0.662423 h -0.33121 z m 6.03153,0.348643 q 0.0349,0.679855 0.66242,0.993634 z m -2.35334,0.993634 1.34227,1.011067 q -0.45323,-0.749584 -1.34227,-1.011067 z m 10.72079,2.353344 0.33121,0.662423 2.0047,-1.342278 q -0.73215,-1.028498 -2.33591,0.679855 z m -8.36745,-2.022132 q 0.13946,0.662423 0.66242,1.011066 -0.12202,-0.662423 -0.66242,-1.011066 z m 5.68289,0 1.34228,1.011066 q -0.45324,-0.732151 -1.34228,-1.011066 z m -9.02987,3.346978 0.99364,2.353344 q -0.17433,-1.289981 -0.99364,-2.353344 z m 15.0614,0.679855 v -0.679855 h -0.34864 z m -1.67349,0.331211 0.33122,1.011066 v -1.011066 z m -15.41004,0.331212 0.34864,1.011066 0.33121,-1.011066 z m 16.40368,0 q 0.10459,0.610126 0.67985,1.011066 -0.13945,-0.679855 -0.67985,-1.011066 z m -17.0661,0.679854 0.33121,0.993635 v -0.993635 z m 15.39261,0.331212 1.67349,0.993634 q -0.57526,-0.644991 -1.67349,-0.993634 z m -11.71442,0.662423 q 0.10459,0.435804 0.67985,0.679854 -0.0697,-0.453236 -0.67985,-0.679854 z m 12.04563,1.673489 q 0.34864,0.540397 1.01107,0.679855 z m 2.68456,0.679855 v -0.679855 h -0.33122 z"
       style="font-style:normal;font-variant:normal;font-weight:normal;font-stretch:normal;font-family:umbrage;-inkscape-font-specification:umbrage;fill:#ffffff;fill-opacity:1;stroke-width:0.892528"
       id="path836" />
    <path
       d="m 130.75286,36.746274 2.92861,0.348643 2.24875,-0.383508 q 0.4881,0.03486 0.4881,1.934972 0,0.627558 -0.0523,1.446871 v 2.684555 l -0.50553,-0.06973 q -0.47067,0.627559 0.50553,1.412007 l -0.67985,0.993634 q 0.50553,1.324845 0.67985,3.015767 v 1.673489 q -0.94134,-0.592694 -2.02213,-0.662423 l 2.02213,2.335912 -0.34864,2.684555 0.34864,0.993634 0.0174,2.928606 -0.36607,1.080795 -1.25512,0.209186 -2.09186,-0.209186 -1.9524,0.0523 q -0.38351,-0.366075 -0.38351,-2.527665 v -0.191754 l 0.33121,-2.667123 -0.33121,-0.679855 v -6.362745 q 0.31378,-0.976202 1.01106,-2.004701 l -1.01106,-0.993634 0.17432,-6.17099 z m 0.92391,4.358044 -0.33122,1.342278 0.66243,0.331211 0.66242,-1.011066 z m 0.33121,3.015767 q 0.20918,1.063363 1.01106,2.0047 -0.12202,-1.150524 -1.01106,-2.0047 z m 2.0047,3.346978 -0.66243,1.342277 1.67349,-0.679854 q -0.26148,-0.488101 -1.01106,-0.662423 z m -2.33591,2.0047 q 0.22661,0.71472 0.99363,1.011067 z m 0.33121,2.004701 -0.66243,1.011066 0.33122,0.662423 1.34227,-1.342278 z m 1.01106,1.673489 q 0.0697,0.993634 0.99364,1.673489 -0.19176,-0.95877 -0.99364,-1.673489 z m -0.34864,4.358044 q 0.12202,0.435804 0.67985,0.662423 -0.0697,-0.435805 -0.67985,-0.662423 z"
       style="font-style:normal;font-variant:normal;font-weight:normal;font-stretch:normal;font-family:umbrage;-inkscape-font-specification:umbrage;fill:#ffffff;fill-opacity:1;stroke-width:0.892528"
       id="path838" />
    <path
       d="m 156.90113,37.042621 q 0.31378,0.836744 -0.38351,2.353344 -0.73215,1.656057 -2.71942,3.573596 l -2.02213,2.789148 q -1.23769,1.11566 -1.44687,1.673489 0.26148,1.045931 1.65605,2.266184 l 2.33591,1.952403 q 0.0697,1.795515 2.09187,3.782783 l 1.79551,2.667123 -1.0808,1.289981 -2.96347,-0.40094 -0.67985,0.331211 -1.65606,-0.03486 -1.88267,-2.858877 -0.34865,-2.353344 -0.4358,1.255117 -1.11566,-1.778082 q -0.87161,-1.237685 -2.0047,-2.545098 l -1.27255,-1.412007 -0.55783,0.435805 -0.0872,1.934972 0.36608,3.852511 -0.0349,3.503867 -2.33591,-0.331211 -1.01107,0.331211 h -1.01106 l -1.35971,-0.139457 0.24405,-3.92224 -0.20919,-3.991968 0.33121,-2.649691 -0.33121,-1.011067 0.33121,-2.684555 q -0.33121,-3.416707 0,-5.351679 l -0.26148,-2.440504 q 0.55783,-0.209187 2.12673,-0.209187 1.35971,0 3.48643,0.15689 0.71472,0.522965 0.33121,3.172656 l -0.27891,3.782783 q -0.20919,1.098227 -0.0872,2.266183 l 2.02213,-2.039565 2.37078,-2.0047 1.27255,-1.91754 0.0349,-1.028498 1.32484,-2.056997 q 0.85418,-0.366076 2.57997,-0.366076 z m -15.46234,2.196454 v -0.662423 h -0.33122 z m 10.04093,-0.662423 q 0.12202,0.418373 0.67985,0.662423 l 0.33122,-0.331211 z m 2.68455,0 q 0.1046,0.418373 0.66243,0.662423 -0.0697,-0.453237 -0.66243,-0.662423 z m -11.052,2.335912 0.67986,0.331211 v -0.993634 h -0.34864 z m 8.36745,0 v -0.662423 h -0.33121 z m -0.33121,0.331211 0.33121,1.011067 0.33121,-1.011067 z m -10.04094,0.331212 -0.33121,1.673489 0.99364,-0.993634 q -0.0697,-0.418372 -0.66243,-0.679855 z m 11.71443,0 q 0.10459,0.435804 0.66242,0.679855 -0.0697,-0.453237 -0.66242,-0.679855 z m -2.33591,1.011066 q 0.10459,0.435805 0.66242,0.662423 -0.0697,-0.435805 -0.66242,-0.662423 z m -8.03624,0.662423 q 0.0872,0.470669 0.66242,0.679855 -0.10459,-0.331212 -0.66242,-0.679855 z m 8.69866,0.348643 q 0.13946,0.644991 0.66242,0.993635 l 0.34864,-0.993635 z m -3.34698,0.331212 q 0.10459,0.435804 0.66242,0.662423 -0.10459,-0.331212 -0.66242,-0.662423 z m -5.02047,0.331211 q -0.94133,1.255117 -1.34227,3.015767 h 1.34227 l 1.01107,-2.353344 z m 5.35168,1.011066 q 0.5927,-0.0523 0.67986,-0.679854 z m 1.34228,-0.348643 q 0.40094,0.941337 0.66242,0.819312 0.26148,-0.122025 -0.66242,-0.819312 z m -1.67349,1.342278 V 45.60182 h -0.33121 z m -8.03623,1.011066 q 0.0697,0.871609 0.67985,1.673489 z m 4.35804,0.662423 -1.01107,1.011066 q 0.88905,-0.15689 1.01107,-1.011066 z m -3.01577,1.673489 -0.66242,2.353344 q 0.5927,-1.045931 0.66242,-2.353344 z m 9.37852,1.011066 -1.01107,1.342278 q 0.94134,-0.366076 1.01107,-1.342278 z m 2.0047,2.335912 -0.33122,1.342277 q 0.66243,0.540398 0.99364,0.662423 l 0.33121,-1.324845 q -0.66242,-0.55783 -0.99363,-0.679855 z m -1.01107,1.673489 v -0.662423 h -0.33121 z m -8.03623,-0.331212 -0.33122,1.011067 0.67986,-0.348644 v -0.662423 z m -2.99834,0.662423 q 0.27892,0.488101 0.99364,0.679855 -0.26149,-0.488101 -0.99364,-0.679855 z m 13.71912,0.679855 q 0.13946,0.644991 0.66243,0.993634 -0.1046,-0.662423 -0.66243,-0.993634 z m -2.0047,0.331211 q 0.24405,0.71472 0.99364,1.011067 -0.26148,-0.71472 -0.99364,-1.011067 z m -1.58632,-0.697287 q 0.24405,1.76065 1.23768,2.039565 -0.0697,-0.453237 -1.23768,-2.039565 z m 3.92224,1.708354 0.33121,0.993634 v -0.993634 z"
       style="font-style:normal;font-variant:normal;font-weight:normal;font-stretch:normal;font-family:umbrage;-inkscape-font-specification:umbrage;fill:#ffffff;fill-opacity:1;stroke-width:0.892528"
       id="path840" />
    <path
       d="m 159.28933,36.676545 3.67819,0.331211 h 1.01107 v -0.331211 q 1.13309,0.226618 2.66712,0.331211 l 2.68456,0.331212 0.66242,-0.331212 2.63226,0.03486 -0.0697,2.754284 -0.33121,1.011066 q 0.31378,0.453237 -0.22662,0.993634 l -4.79385,-0.331211 -2.59739,0.366076 -0.0697,1.969836 q 0.22662,1.324845 0.34864,2.056996 2.4928,0.139458 3.99197,-0.383507 l 3.34698,0.296347 0.26148,1.237684 0.0697,2.824013 -1.93497,0.732151 -1.06336,-0.40094 -2.02214,0.06973 -1.88267,-0.261483 -1.4643,0.191754 q -0.69729,0.31378 -0.38351,0.95877 l -0.29635,0.592694 q -0.64499,1.011066 0.13946,0.610126 0.40094,0.418373 0.5404,1.5166 l 2.35334,0.679855 0.99363,-0.331212 2.02214,0.331212 0.66242,-0.331212 h 1.01106 l 0.99364,-0.348643 0.67985,0.348643 -0.67985,5.334247 -2.33591,-0.662423 -1.01107,0.331211 -2.33591,-0.331211 -0.67986,0.331211 h -5.35167 q -1.09823,-0.209186 -1.67349,-0.993634 v -1.011066 h -0.33121 l 0.24405,-2.71942 0.0872,-3.294681 0.0349,-2.457937 -0.0349,-1.568896 0.33121,-3.346978 -0.55783,-6.467338 q 0.34864,-0.08716 0.67985,-0.662423 z m 2.66713,1.342278 q 0.19175,0.575262 0.90647,0.767015 -0.17432,-0.592694 -0.90647,-0.767015 z m 3.01576,0 q 0.64499,0.993634 1.90011,1.44687 -0.74958,-0.836744 -1.90011,-1.44687 z m -4.46263,0.435804 0.33121,1.011066 v -1.011066 z m 5.02046,1.342278 0.33121,1.342277 0.34865,-0.679855 z m -2.0047,1.011066 -0.33121,0.993634 0.71472,-0.40094 0.62756,-0.592694 z m -1.67349,2.335912 -0.66242,1.673489 1.32485,-0.662423 q -0.12203,-0.679855 -0.66243,-1.011066 z m -2.0047,2.684555 q 0.0349,0.662423 0.66243,0.993634 z m 7.02517,1.324846 v -0.662423 h -0.33121 z m 4.0094,0.679855 q 0.10459,0.435804 0.67986,0.662422 -0.12203,-0.331211 -0.67986,-0.662422 z m -7.35638,1.342277 0.66243,0.331212 0.34864,-1.011067 h -0.67986 z m -1.34228,-0.348643 -0.99363,2.353344 q 0.55783,-0.139458 0.99363,-0.679855 l 1.34228,-0.662423 z m -2.33591,1.673489 q 0.12203,0.819312 0.66243,1.673489 -0.1046,-0.819313 -0.66243,-1.673489 z m 0.99364,2.022132 q 0.61012,0.749584 1.67349,0.993634 z m -0.99364,0.331212 q 0.12203,0.331211 0.66243,0.662422 -0.0872,-0.435804 -0.66243,-0.662422 z m 1.34228,0.993634 v 0.679855 h 0.33121 V 53.84724 Z m 2.0047,0 -0.33121,1.011066 0.99363,-0.331211 q -0.0872,-0.453237 -0.66242,-0.679855 z m -3.34698,0.348643 v 0.662423 h 0.33121 v -0.662423 z m 2.0047,0.331212 -0.33121,1.342277 0.99364,-0.679855 q -0.0697,-0.435804 -0.66243,-0.662422 z m 5.68289,1.673489 -0.99363,1.342277 q 0.87161,-0.383508 0.99363,-1.342277 z"
       style="font-style:normal;font-variant:normal;font-weight:normal;font-stretch:normal;font-family:umbrage;-inkscape-font-specification:umbrage;fill:#ffffff;fill-opacity:1;stroke-width:0.892528"
       id="path842" />
    <path
       d="m 183.57236,36.763706 5.59573,0.174322 0.66242,1.011066 0.34865,-0.679855 3.32954,-0.08716 h 0.99364 v -0.331211 l 0.34864,0.331211 0.99363,0.348644 v -0.679855 l 2.35335,0.331211 h 0.99363 l 0.33121,1.673489 -0.33121,3.346978 -1.67349,0.348644 -0.99363,-0.679855 q -1.4643,0.122025 -3.01577,1.011066 l 0.33121,-2.0047 -1.01106,2.335912 q 0.74958,0.0523 1.34228,0.662422 l -0.33122,1.342278 0.33122,11.052 0.12202,2.701988 -3.13779,0.278915 -2.02213,-0.331212 -0.66243,0.331212 -0.33121,-2.684556 0.66242,-0.993634 -0.31377,-2.649691 -0.33122,-3.346978 0.66243,-2.0047 -0.66243,-0.348644 0.66243,-3.346978 q 0.15689,-1.185388 -0.17433,-1.464303 l -0.61012,-0.40094 -4.41034,0.15689 q -0.24405,-2.457937 -0.24405,-3.835079 0,-1.20282 0.19175,-1.568897 z m 1.23769,3.102927 v -0.662422 h -0.34865 z m 5.35167,-0.662422 q -0.78444,0.348643 -1.34227,1.324845 0.4881,0.261483 1.34227,0.348644 l 0.99364,-1.342278 z m -1.67348,0.993634 v -0.662423 h -0.33122 z m 8.03623,0.331211 v -0.662423 h -0.34864 z m -6.36275,3.346978 q 0.1046,0.55783 0.66243,1.011067 l 0.33121,-1.011067 z m 1.67349,1.673489 q 0.27892,0.610127 0.99364,0.679855 z m -3.01576,1.342278 1.01106,1.011066 q -0.22662,-0.732151 -1.01106,-1.011066 z m 0.66242,1.673489 0.34864,1.011066 V 48.56529 Z m 1.01107,1.673489 q 0.88904,0.767016 2.33591,1.011066 z m 2.68455,2.353344 v -0.679855 h -0.34864 z m -0.34864,0.993634 0.34864,1.011066 v -1.011066 z m -2.35335,2.649691 1.01107,1.673489 q -0.13946,-1.028498 -1.01107,-1.673489 z"
       style="font-style:normal;font-variant:normal;font-weight:normal;font-stretch:normal;font-family:umbrage;-inkscape-font-specification:umbrage;fill:#ffffff;fill-opacity:1;stroke-width:0.892528"
       id="path844" />
    <path
       d="m 202.25965,36.816002 2.44051,0.418373 3.59103,-0.418373 q 2.87631,0.435805 6.0141,1.673489 l 2.02213,2.335912 q 0.5404,1.377142 0.5404,2.824013 0,1.272549 -0.41837,2.597394 l -0.61013,1.220253 q -0.61013,1.220252 -1.86524,1.725785 -1.0285,0.923906 -1.34228,2.353344 l 4.09656,6.815982 -0.52297,0.679855 -1.09822,-0.15689 -0.99364,0.453237 -1.20282,-0.31378 -1.60376,0.209187 -2.35334,-5.020468 q -0.87161,-1.098227 -1.55146,-1.673489 l -0.66243,-1.289981 -1.11566,-0.505533 -0.0697,0.906473 -0.27891,1.568896 q 0.52296,1.063363 0.66242,2.335912 l 0.17432,3.713054 -4.4975,-0.366076 -1.04593,0.278915 0.0174,-6.972871 v -2.335912 l 0.33122,-1.342277 -0.33122,-3.346978 0.33122,-2.335912 -0.33122,-0.679855 -0.33121,-4.689256 z m 2.0047,2.004701 V 38.15828 h -0.33121 z m -0.66242,1.011066 -0.33121,1.342278 h 0.99363 L 204.613,40.16298 Z m 2.68456,1.167956 q -1.04593,0.592694 -1.34228,2.179022 l 0.73215,0.662423 -0.0697,2.353344 q 0.62756,1.237684 2.0047,1.673489 1.53403,-0.261483 3.01577,-1.342278 l 1.67349,-3.015766 -3.66076,-2.510234 z m 8.0188,3.5213 h 0.67985 l -0.33121,-0.679855 z m -2.0047,0 q 0.40094,1.115659 1.34227,2.0047 l 1.01107,-1.011066 z m -1.67349,2.667123 -0.33121,1.011066 0.66242,-0.331211 v -0.679855 z m -6.69396,0.679855 -0.66242,0.993634 1.34228,0.679855 0.33121,-1.342278 z m -1.34228,2.0047 q 0.26149,0.71472 1.01107,0.993634 z m 7.70503,0.662423 -0.66243,3.346978 0.99364,0.331211 0.33121,-0.331211 q -0.0174,-1.568896 -0.66242,-3.346978 z m 1.67349,2.684555 q 0.55783,1.202821 1.67348,2.335912 -0.3835,-1.324845 -1.67348,-2.335912 z m -10.04094,0.662423 q 0.24405,0.714719 1.01107,1.011066 -0.27892,-0.679855 -1.01107,-1.011066 z m 1.34228,1.011066 -0.67986,1.673489 q 0.80188,-0.261482 1.34228,-1.011066 z"
       style="font-style:normal;font-variant:normal;font-weight:normal;font-stretch:normal;font-family:umbrage;-inkscape-font-specification:umbrage;fill:#ffffff;fill-opacity:1;stroke-width:0.892528"
       id="path846" />
    <path
       d="m 223.98014,38.018823 q 0.78445,-1.324846 2.5451,-1.865243 l 3.76535,0.732151 1.86524,0.244051 0.4881,3.102927 2.00471,4.689256 q 0.62755,2.457937 2.0047,5.351678 l 1.34227,5.68289 q 0.80188,1.045931 0.80188,2.824013 v 0.226618 l -1.76065,0.08716 q -1.9001,0 -3.62589,-0.01743 l -0.50553,-2.144158 -0.87161,-1.690921 -3.12036,-0.03486 -5.64803,0.08716 q -0.41837,2.091862 -0.80188,3.224953 0.0523,0.95877 -1.16795,0.95877 -0.62756,0 -1.5689,-0.24405 l -2.47537,0.0523 -0.66242,-0.313779 0.31378,-0.662423 q 0.40094,-2.283615 1.01106,-3.137792 l 1.01107,-3.556164 2.30105,-5.578297 q 0.81931,-1.812946 1.37714,-4.131426 0.59269,-2.56253 1.37714,-3.887375 z m 6.31045,0.209186 h 0.67986 v -0.679855 h -0.33122 z m -3.80021,7.722454 -1.20282,0.104593 -0.22662,4.689256 2.03956,-0.784448 1.01107,1.080795 0.80188,-0.348643 1.16795,0.01743 1.22026,-0.122025 -0.47067,-1.969836 -1.20282,-3.364411 q -0.17432,-1.551464 -0.74959,-2.510233 l -0.47066,-1.167956 -0.67986,-0.40094 z m 4.81128,-5.386542 v -0.662423 h -0.33121 z m -7.70503,0.679854 q 0.24406,0.627559 1.01107,0.662423 z m 2.35335,0.662423 -0.33121,1.011067 h 0.66242 v -1.011067 z m 4.0094,0 q 0.10459,0.435805 0.67985,0.662423 -0.0697,-0.435804 -0.67985,-0.662423 z m 0.33121,2.335912 q 0.59269,1.115659 2.02213,2.022133 -0.64499,-1.11566 -2.02213,-2.022133 z m 3.01577,1.673489 q 0.13945,0.662423 0.67985,1.011066 -0.13945,-0.662422 -0.67985,-1.011066 z m -9.70973,3.346978 -0.33121,2.022133 q -0.20918,-0.71472 -0.99363,-1.011067 l -0.67986,2.335912 2.0047,-0.993634 q 0.29635,0.470669 1.01107,0.662423 l -0.13946,-1.412007 0.13946,-1.255116 z m 8.29772,-0.174322 q 1.22025,1.150524 2.02213,3.015767 l 0.66243,-1.342278 q -1.20282,-1.028498 -2.68456,-1.673489 z m -10.96484,0.854177 v 0.662423 l 0.66242,-0.331212 z m 12.37685,2.667123 v -0.662423 h -0.33121 z m 1.18539,-0.662423 -0.85418,2.545098 q 1.67349,0.06973 3.41671,1.272549 -0.92391,-2.074429 -2.56253,-3.817647 z m -8.54177,0.662423 q 0.67985,0.714719 1.67349,1.011066 -0.67986,-0.732151 -1.67349,-1.011066 z m -4.68926,0.679855 q 0.24405,0.697287 1.01107,0.993634 z m -1.01106,1.673489 -0.99364,2.004701 h 1.34228 l 0.66242,-1.67349 z"
       style="font-style:normal;font-variant:normal;font-weight:normal;font-stretch:normal;font-family:umbrage;-inkscape-font-specification:umbrage;fill:#ffffff;fill-opacity:1;stroke-width:0.892528"
       id="path848" />
    <path
       d="m 237.24603,36.972892 1.76065,-0.209186 3.57359,-0.0523 0.27892,1.011067 q 0.57526,1.795514 1.15052,3.451571 l 0.66242,3.346978 q 0.69729,1.167956 1.34228,2.684555 0.41837,1.568896 0.85418,3.224953 l 0.40094,0.836745 0.34864,0.767015 3.60846,-10.65106 q 0.47067,-1.76065 1.41201,-3.92224 l 2.35334,-0.331211 0.99364,0.331211 2.30104,-0.627558 -0.31378,1.708353 -1.02849,2.928606 q -1.79552,4.758984 -3.05063,6.275584 -0.12203,1.60376 -0.66243,3.346978 l -2.68455,6.031533 q -0.55783,1.412006 -2.07443,2.126726 l -2.68456,0.348643 -0.66242,-0.348643 -1.28998,-3.538732 q -0.9762,-0.40094 -3.62589,-9.587698 -1.53404,-4.863577 -2.26619,-6.589363 -0.69728,-1.377142 -0.69728,-2.527666 z m 16.31651,2.074429 1.01107,0.662423 q -0.27891,-0.488101 -1.01107,-0.662423 z m 1.34228,0 q 0.22662,0.662423 0.99364,0.662423 z m -16.07247,0.331211 q 0.13946,0.662423 0.67986,1.011067 z m 1.01107,0 q 0.13946,0.331212 0.66242,0.662423 -0.0697,-0.435804 -0.66242,-0.662423 z m 1.34228,0.662423 0.66242,0.348644 0.33121,-1.011067 h -0.66242 z m 14.71276,0.348644 0.67985,0.331211 0.33121,-1.011066 h -0.66242 z m -2.66713,0.662423 -1.34228,1.011066 1.67349,0.662423 0.33122,-1.011067 z m -8.21055,7.495836 v -0.679855 h -0.34865 z m 3.85251,1.534031 q 0.12202,0.435805 0.67985,0.679855 -0.0697,-0.453236 -0.67985,-0.679855 z m 0.67985,1.673489 -1.01106,0.679855 0.66242,2.004701 1.01107,-2.004701 q -0.1046,-0.331211 -0.66243,-0.679855 z m -2.35334,1.011067 q 0.13946,0.662423 0.67985,1.011066 -0.12202,-0.679855 -0.67985,-1.011066 z m -0.99364,1.342277 q 0.13946,1.621193 0.99364,3.015767 0.4881,-0.871609 1.34228,-1.673489 l -0.33121,1.324846 0.66242,0.348643 q -0.12203,-1.429438 -0.99364,-2.684555 l -1.01106,1.342277 q -0.0349,-0.889041 -0.66243,-1.673489 z m -1.34227,0.993635 q 0.12202,0.836744 0.66242,1.673489 -0.0872,-0.801881 -0.66242,-1.673489 z"
       style="font-style:normal;font-variant:normal;font-weight:normal;font-stretch:normal;font-family:umbrage;-inkscape-font-specification:umbrage;fill:#ffffff;fill-opacity:1;stroke-width:0.892528"
       id="path850" />
    <path
       d="m 258.79219,36.676545 3.67819,0.331211 h 1.01107 v -0.331211 q 1.13309,0.226618 2.66712,0.331211 l 2.68456,0.331212 0.66242,-0.331212 2.63226,0.03486 -0.0697,2.754284 -0.33121,1.011066 q 0.31378,0.453237 -0.22662,0.993634 l -4.79385,-0.331211 -2.59739,0.366076 -0.0697,1.969836 q 0.22662,1.324845 0.34864,2.056996 2.4928,0.139458 3.99197,-0.383507 l 3.34698,0.296347 0.26148,1.237684 0.0697,2.824013 -1.93497,0.732151 -1.06336,-0.40094 -2.02214,0.06973 -1.88267,-0.261483 -1.4643,0.191754 q -0.69729,0.31378 -0.38351,0.95877 l -0.29635,0.592694 q -0.64499,1.011066 0.13946,0.610126 0.40094,0.418373 0.5404,1.5166 l 2.35334,0.679855 0.99363,-0.331212 2.02214,0.331212 0.66242,-0.331212 h 1.01107 l 0.99363,-0.348643 0.67985,0.348643 -0.67985,5.334247 -2.33591,-0.662423 -1.01107,0.331211 -2.33591,-0.331211 -0.67985,0.331211 h -5.35168 q -1.09823,-0.209186 -1.67349,-0.993634 v -1.011066 h -0.33121 l 0.24405,-2.71942 0.0872,-3.294681 0.0349,-2.457937 -0.0349,-1.568896 0.33121,-3.346978 -0.55783,-6.467338 q 0.34864,-0.08716 0.67985,-0.662423 z m 2.66713,1.342278 q 0.19175,0.575262 0.90647,0.767015 -0.17432,-0.592694 -0.90647,-0.767015 z m 3.01576,0 q 0.64499,0.993634 1.90011,1.44687 -0.74958,-0.836744 -1.90011,-1.44687 z m -4.46263,0.435804 0.33121,1.011066 v -1.011066 z m 5.02046,1.342278 0.33122,1.342277 0.34864,-0.679855 z m -2.0047,1.011066 -0.33121,0.993634 0.71472,-0.40094 0.62756,-0.592694 z m -1.67349,2.335912 -0.66242,1.673489 1.32485,-0.662423 q -0.12203,-0.679855 -0.66243,-1.011066 z m -2.0047,2.684555 q 0.0349,0.662423 0.66243,0.993634 z m 7.02517,1.324846 v -0.662423 h -0.33121 z m 4.0094,0.679855 q 0.1046,0.435804 0.67986,0.662422 -0.12203,-0.331211 -0.67986,-0.662422 z m -7.35638,1.342277 0.66243,0.331212 0.34864,-1.011067 h -0.67986 z m -1.34227,-0.348643 -0.99364,2.353344 q 0.55783,-0.139458 0.99364,-0.679855 l 1.34227,-0.662423 z m -2.33592,1.673489 q 0.12203,0.819312 0.66243,1.673489 -0.1046,-0.819313 -0.66243,-1.673489 z m 0.99364,2.022132 q 0.61012,0.749584 1.67349,0.993634 z m -0.99364,0.331212 q 0.12203,0.331211 0.66243,0.662422 -0.0872,-0.435804 -0.66243,-0.662422 z m 1.34228,0.993634 v 0.679855 h 0.33121 V 53.84724 Z m 2.0047,0 -0.33121,1.011066 0.99363,-0.331211 q -0.0872,-0.453237 -0.66242,-0.679855 z m -3.34698,0.348643 v 0.662423 h 0.33122 v -0.662423 z m 2.0047,0.331212 -0.33121,1.342277 0.99364,-0.679855 q -0.0697,-0.435804 -0.66243,-0.662422 z m 5.68289,1.673489 -0.99363,1.342277 q 0.87161,-0.383508 0.99363,-1.342277 z"
       style="font-style:normal;font-variant:normal;font-weight:normal;font-stretch:normal;font-family:umbrage;-inkscape-font-specification:umbrage;fill:#ffffff;fill-opacity:1;stroke-width:0.892528"
       id="path852" />
    <path
       d="m 277.863,39.012457 v -0.679855 h -0.33121 z m -1.34227,1.673489 q 0.12202,1.568896 1.34227,2.667123 -0.24405,-1.35971 -1.34227,-2.667123 z m -2.00471,12.376846 -0.33121,1.011066 h 0.66243 l 0.33121,-1.011066 z m 8.03624,2.684555 v 1.324846 l 0.99363,-0.993635 z m -0.33121,0.993634 v -0.662423 h -0.34865 z m -4.46264,-0.662423 -0.67985,0.993635 1.34227,1.011066 -0.33121,-1.342278 0.33121,-0.331211 z m 1.67349,0.662423 q 0.9239,0.95877 1.77808,1.011067 z m -3.69562,1.011067 q 0.0697,0.453236 0.67985,0.662422 -0.12202,-0.331211 -0.67985,-0.662422 z m -2.23132,-20.761724 2.64969,0.505533 2.09186,-0.488101 1.28998,-0.01743 v 2.684556 l -0.33121,2.0047 -0.24405,3.155224 q -0.88904,1.20282 -1.42944,0.871609 l -1.01106,2.667123 0.67985,1.011066 0.99363,-2.684555 1.34228,2.684555 -0.33121,2.667123 0.33121,1.011067 v 1.011066 l 0.41837,0.488101 1.27255,-1.011066 4.04427,0.313779 1.90011,0.139457 -0.38351,2.370776 0.26148,2.510234 -3.15522,0.522965 -4.48007,-0.732151 -5.29939,0.732151 -0.62755,-0.679855 0.0174,-3.329545 0.34864,-1.324846 -0.20918,-1.220252 -0.0523,-4.009401 0.94134,-1.289981 -0.74959,-0.03486 -0.20918,-2.701987 -0.38351,-6.815982 z"
       style="font-style:normal;font-variant:normal;font-weight:normal;font-stretch:normal;font-family:umbrage;-inkscape-font-specification:umbrage;fill:#ffffff;fill-opacity:1;stroke-width:0.892528"
       id="path854" />
  </g>
</svg>
