<?xml version="1.0" encoding="UTF-8" standalone="no"?>
<svg
   xmlns:dc="http://purl.org/dc/elements/1.1/"
   xmlns:cc="http://creativecommons.org/ns#"
   xmlns:rdf="http://www.w3.org/1999/02/22-rdf-syntax-ns#"
   xmlns:svg="http://www.w3.org/2000/svg"
   xmlns="http://www.w3.org/2000/svg"
   xmlns:sodipodi="http://sodipodi.sourceforge.net/DTD/sodipodi-0.dtd"
   xmlns:inkscape="http://www.inkscape.org/namespaces/inkscape"
   id="Layer_1"
   data-name="Layer 1"
   viewBox="0 0 317 105"
   version="1.1"
   sodipodi:docname="TravelingLogo.svg"
   inkscape:version="1.0.2 (e86c870879, 2021-01-15, custom)"
   width="317"
   height="105"
   inkscape:export-filename="D:\OneDrive\Pictures\TravelingLogo.png"
   inkscape:export-xdpi="96"
   inkscape:export-ydpi="96">
  <metadata
     id="metadata21">
    <rdf:RDF>
      <cc:Work
         rdf:about="">
        <dc:format>image/svg+xml</dc:format>
        <dc:type
           rdf:resource="http://purl.org/dc/dcmitype/StillImage" />
        <dc:title>creditcard</dc:title>
      </cc:Work>
    </rdf:RDF>
  </metadata>
  <defs
     id="defs19" />
  <sodipodi:namedview
     pagecolor="#ffffff"
     bordercolor="#666666"
     borderopacity="1"
     objecttolerance="10"
     gridtolerance="10"
     guidetolerance="10"
     inkscape:pageopacity="0"
     inkscape:pageshadow="2"
     inkscape:window-width="1920"
     inkscape:window-height="1017"
     id="namedview17"
     showgrid="false"
     inkscape:zoom="1.5735382"
     inkscape:cx="230.26183"
     inkscape:cy="256"
     inkscape:window-x="-8"
     inkscape:window-y="-8"
     inkscape:window-maximized="1"
     inkscape:current-layer="Layer_1"
     inkscape:document-rotation="0" />
  <title
     id="title2">creditcard</title>
  <polygon
     points="305.59,474.02 305.58,474.02 305.57,474.03 "
     fill="#fac60f"
     id="polygon4"
     transform="matrix(0.2,0,0,0.2,10.23256,-0.087996)" />
  <path
     d="m 106.78456,59.768004 c 1.214,-0.352 3.112,-0.218 3.28,-1.586 0.224,-1.8 -1.67,-1.416 -2.856,-1.626 -1.052,-0.19 -2.098,-0.424 -3.144,-0.638 2.95,-6.414 3,-6.882 2.292,-6.95 -6,-0.58 -2.718,-5.102 -3.462,-7.894 2.066,-0.344 4,-0.972 5.632,-2.45 -0.956,-1.11 -2.778,0 -3.328,-1.6 -0.964,-3.92 -5.788,-2.55 -7.49,-5.464 a 5,5 0 0 0 -0.024,-0.818 c 0.47,-0.476 0.94,-0.954 1.41,-1.436 v 0 l 1.986,-0.35 v 0 c 1.514,-0.47 2.29,-2.022 1.362,-2.826 -1.94,-1.684 -4.254,-1.066 -6.28,0.386 -4.744,0.29 -5.732,-3.956 -8,-6.643999 l 1.654,-2.35 c 2.42,-0.862 2.42,-3.666 4.128,-5.11 1,0.472 2.11,0.8 2.668,-0.486 0.518,-1.2 -0.178,-2.09 -1.4,-2.232 -2.2,-0.254 -3.586,0.842 -4.21,2.932 v 0 c -3.544,4.254 -7.772,1.4 -11.752,1.132 -2.294,0 -4.72,0.51 -6.444,-1.672 q 0.044,-1.25 0.088,-2.496 c 2.672,-2.684 3,-5.734 0.978,-9.7 -0.824,4.82 -3.816,7.2 -7.894,8.428 v 0 l -8.004,3.58 -1.7,-1.046 c -3.484,-0.684 -4.102,-4.78 -7.142,-6 -0.974,-0.75 -2.164,-2.488 -3.146,-1.44 -1.542,1.652 0.852,2.902 1.38,4.4 -0.058,1.984 1.502,3.02 2.56,4.35 v 0 l -2.124,2.312 c -1.954,0.47 -3.77,0.032 -5.514,-0.834 v 0 0 l -0.3,-0.17 v 0 c -0.382,-1.542 -0.4,-3.24 -1.904,-4.284 v 0 c -0.186,-2.472 -1,-4.614 -3.372,-5.746 -0.376,-0.178 -1.4,0.158 -1.556,0.506 -1.23,2.816 1.88,3.992 2.48,6.152 0.096,0.334 0.6,0.556 0.916,0.832 l -0.856,2.832 v 0 0 c -1.186,1.504 -3.29,2.512 -2.682,4.984 -0.512,1.279999 -1.698,1.219999 -2.768,1.399999 a 2.298,2.298 0 0 0 -1.122,-0.439999 c -0.8,-2.4 -2.580001,-4.888 -4.822001,-3.214 -1.956,1.464 -0.648,4.179999 1.778,5.469999 v 0 c 0.452,0.58 0.91,1.16 1.37,1.742 v 0 c 0.024,0.508 0.046,1.01 0.07,1.518 l -2.438,2.416 v 0 c -0.914,-0.122 -1.826,-0.242 -2.738,-0.368 -1.708,-0.972 -3.894,-2.03 -4.858,0.294 -0.872,2.102 1.298,2.7 3.068,2.964 q 0.382,1.4 0.768,2.79 v 0 0 q -2.13,3.072 -4.266,6.14 v 0 c -1.458,0.824 -4.51,-1.11 -4.428,1.73 0.044,1.67 2.812,0.962 4.386,1.222 l 1.344,2.382 -3.842,3.73 c -1.3,-0.032 -2.876,-0.15 -3.508,1.06 -0.738,1.418 0.544,2.578 1.68,3 3.914,1.424 2.612,3.35 0.742,5.448 -2.96,4.754 4.566,4.28 3.936,7.868 -0.516,2.4 -5.704,2.728 -2.914,6.6 1.972,1.918 4.272,0.768 6.456,0.688 v 0 0 c 0.8,1.234 2.566,2.82 2.26,3.646 -2.056,5.614 2.046,6.874 5.600001,8.616 0.142,1.43 0.432,2.732 2.318,2.612 1.588,1.268 -1.8,6.138 2.298,5.6 0.37,0.064 0.856,-0.03 1.498,-0.344 3.072,-1.742 5.918,-2.886 5.934,2.518 0,3.424 2.106,3.288 4.288,2.368 1.676,-0.704 2.772,-2.786 5.048,-2.056 1.912,1.24 4.622,0.686 6.162,2.756 v 0 c 3.58,2.727996 7.2,6.279996 10.356,-0.458 1.2,-1.022 2.476,-1.984 2.68,-3.728 l 3.87,1.286 c 5.436,6.309996 3.8,-3.46 6.692,-2.94 l 2.576,0.188 c 1.14,1.776 2.292,4.474 4.766,2.636 1.51,-1.12 1.624,-3.6 -1.47,-4.014 v 0 0 c -0.504,-1.77 1.874,-2.1 1.816,-3.646 v 0 c 1.492,-3.134 5.742,-2.516 7.4,-5.432 l 0.028,0.012 c 1.826,1.098 3.732,1.842 5.92,1.39 1.814,-1.758 2.422,-3.982 2.492,-6.414 2.724,-3.4 -0.156,-3.576 -2.374,-4.13 v 0 c -0.71,-1.92 0.26,-3.588 0.778,-5.326 0.15,-0.366 0.284,-0.738 0.4,-1.116 2.07,-0.074 4.554,0.916 5.786,-2.12 -2,-1.154 -3.894,-0.738 -5.75,-0.692 -0.918,-2.5 0.646,-3.644 2.504,-4.63 z m -35.434,34.93 z"
     fill="#fac60f"
     id="path6"
     style="fill:#7d4013;fill-opacity:0.835821;stroke-width:0.2" />
  <path
     d="m 310.41275,34.457965 c 0.6,-1.38 -1.93,-5.94 -3.38,-6.11 -5.12,-0.6 -7,3.61 -7.42,7.82 -0.25,2.45 1.25,5.07 2.49,9.51 3.71,-4.77 6.74,-7.66 8.31,-11.22 z"
     fill="#fac60f"
     id="path8" />
  <path
     style="fill:#f3f3f3;fill-opacity:0.858209;stroke-width:0.128637"
     d="M 80.79508,82.326874 80.408344,82.038649 80.009185,63.11989 79.610049,44.20113 78.936665,44.59119 c -3.709211,2.148635 -4.113967,2.342663 -4.90726,2.352536 -0.953938,0.01116 -1.749206,-0.294792 -3.235854,-1.247822 -2.418016,-1.55003 -5.446768,-3.402714 -5.491052,-3.358853 -0.02575,0.02547 -0.743912,2.78871 -1.595734,6.140326 l -1.5488,6.093856 4.688012,4.082292 c 3.669447,3.195308 4.730496,4.187437 4.883493,4.566213 0.446092,1.104339 0.291073,2.493745 -1.006067,9.017498 -0.667115,3.355193 -1.328406,6.539974 -1.469529,7.077295 -0.558379,2.126049 -1.447388,3.216888 -2.52848,3.102585 -0.730565,-0.07731 -1.153315,-0.3416 -1.517587,-0.948967 -0.429522,-0.716151 -0.53191,-2.60863 -0.281624,-5.204369 0.106213,-1.100781 0.345353,-3.563938 0.531587,-5.473686 0.186181,-1.909748 0.338479,-3.506114 0.338279,-3.547494 -3.58e-4,-0.08513 -0.551627,-0.493375 -7.116902,-5.271508 -4.996329,-3.636221 -5.790722,-4.337603 -6.568045,-5.798887 -0.363497,-0.683309 -0.45244,-1.019903 -0.522615,-1.978094 -0.04648,-0.635048 -0.02249,-1.558252 0.05548,-2.051536 0.108462,-0.695195 2.375407,-8.684744 4.574827,-16.123479 0.262857,-0.889065 0.989426,-1.606445 1.724263,-1.70252 0.728917,-0.09518 7.25538,1.427189 8.058919,1.879988 0.558576,0.314743 1.409498,0.846143 6.031836,3.766902 l 2.593577,1.63882 0.627656,-0.25214 c 0.345228,-0.138747 1.459007,-0.618984 2.475071,-1.067382 l 1.847371,-0.815265 0.005,-2.150489 0.005,-2.150515 0.437969,-0.36088 c 0.605686,-0.499116 1.344949,-0.509436 1.967778,-0.02748 l 0.450391,0.348501 0.09422,1.499313 c 0.07922,1.258121 0.126956,1.489994 0.297319,1.441487 0.111709,-0.03173 0.586067,-0.08423 1.054203,-0.116403 0.817682,-0.0563 0.869713,-0.04246 1.324527,0.351674 1.124603,0.974793 0.717871,1.950702 -1.421469,3.410646 l -1.151793,0.785996 0.34243,19.56422 c 0.247912,14.16974 0.301791,19.638064 0.195181,19.832022 -0.41168,0.748617 -1.655838,0.973744 -2.383679,0.43135 z M 44.058132,81.917239 c -1.103606,-0.379826 -0.764453,-1.781365 1.550827,-6.408419 1.495893,-2.98953 3.679267,-7.593992 4.036468,-8.512393 0.117708,-0.302789 0.406658,-1.949342 0.641945,-3.659031 0.557879,-4.053268 0.492803,-3.815699 0.866195,-3.162418 0.416852,0.729314 2.770268,2.731002 4.55456,3.873901 0.813462,0.521034 1.480374,1.024729 1.482024,1.119351 0.0016,0.09451 -0.229668,0.886874 -0.513792,1.760609 -0.587893,1.807083 -0.722569,2.032456 -4.343885,7.269198 -3.101725,4.485378 -3.721382,5.296241 -4.872148,6.375531 -1.328778,1.246257 -2.426065,1.679617 -3.402194,1.343671 z M 43.114219,51.328315 c -2.748274,-0.621151 -4.73637,-1.684466 -5.487281,-2.934768 -1.270075,-2.114765 1.218495,-7.248215 5.845828,-12.058905 2.083088,-2.165617 4.399764,-3.301478 6.828254,-3.34793 2.605624,-0.04982 3.353312,1.141336 2.437061,3.882638 -2.022658,6.051672 -4.19806,12.386206 -4.356382,12.685463 -0.344403,0.650912 -1.252654,1.40507 -2.013435,1.671865 -0.849572,0.297918 -2.199119,0.340056 -3.254045,0.101658 z m 21.25016,-19.306117 c -2.64161,-0.140761 -5.002424,-1.855613 -5.713872,-4.150572 -0.599461,-1.933722 0.0019,-3.976609 1.606657,-5.4574 3.86373,-3.565392 10.714226,-1.133671 10.807216,3.836209 0.04549,2.427921 -1.692574,4.688808 -4.204458,5.469422 -0.601137,0.186784 -1.842048,0.337151 -2.495543,0.302341 z"
     id="path6243" />
  <text
     xml:space="preserve"
     style="font-style:normal;font-weight:normal;font-size:40px;line-height:1.25;font-family:sans-serif;fill:#253745;fill-opacity:1;stroke:none"
     x="115.24509"
     y="62.37207"
     id="text6267"><tspan
       sodipodi:role="line"
       x="115.24509"
       y="62.37207"
       style="font-style:normal;font-variant:normal;font-weight:normal;font-stretch:normal;font-family:umbrage;-inkscape-font-specification:umbrage;fill:#253745;fill-opacity:1"
       id="tspan836">tRAVELING</tspan></text>
</svg>
