<?xml version="1.0" encoding="UTF-8" standalone="no"?>
<svg
   xmlns:dc="http://purl.org/dc/elements/1.1/"
   xmlns:cc="http://creativecommons.org/ns#"
   xmlns:rdf="http://www.w3.org/1999/02/22-rdf-syntax-ns#"
   xmlns:svg="http://www.w3.org/2000/svg"
   xmlns="http://www.w3.org/2000/svg"
   xmlns:sodipodi="http://sodipodi.sourceforge.net/DTD/sodipodi-0.dtd"
   xmlns:inkscape="http://www.inkscape.org/namespaces/inkscape"
   id="Layer_1"
   data-name="Layer 1"
   viewBox="0 0 298 105"
   version="1.1"
   sodipodi:docname="TravelingLogoDark.svg"
   inkscape:version="1.0.2 (e86c870879, 2021-01-15, custom)"
   width="298"
   height="105"
   inkscape:export-filename="D:\xampp\htdocs\HTML\TravelingCompany\src\images\TravelingLogo.png"
   inkscape:export-xdpi="96"
   inkscape:export-ydpi="96">
  <metadata
     id="metadata21">
    <rdf:RDF>
      <cc:Work
         rdf:about="">
        <dc:format>image/svg+xml</dc:format>
        <dc:type
           rdf:resource="http://purl.org/dc/dcmitype/StillImage" />
        <dc:title>creditcard</dc:title>
      </cc:Work>
    </rdf:RDF>
  </metadata>
  <defs
     id="defs19" />
  <sodipodi:namedview
     pagecolor="#ffffff"
     bordercolor="#666666"
     borderopacity="1"
     objecttolerance="10"
     gridtolerance="10"
     guidetolerance="10"
     inkscape:pageopacity="0"
     inkscape:pageshadow="2"
     inkscape:window-width="1920"
     inkscape:window-height="1017"
     id="namedview17"
     showgrid="false"
     inkscape:zoom="1.1126595"
     inkscape:cx="452.72025"
     inkscape:cy="229.9373"
     inkscape:window-x="-8"
     inkscape:window-y="-8"
     inkscape:window-maximized="1"
     inkscape:current-layer="Layer_1"
     inkscape:document-rotation="0" />
  <title
     id="title2">creditcard</title>
  <polygon
     points="305.58,474.02 305.57,474.03 305.59,474.02 "
     fill="#fac60f"
     id="polygon4"
     transform="matrix(0.2,0,0,0.2,0.23256,-0.087996)" />
  <path
     id="path6"
     style="fill:#7d4013;fill-opacity:0.835821;stroke-width:0.2"
     d="M 63.873047 -0.109375 C 63.049047 4.710625 60.056516 7.0903594 55.978516 8.3183594 L 47.974609 11.898438 L 46.275391 10.851562 C 42.791391 10.167563 42.172812 6.0715625 39.132812 4.8515625 C 39.078078 4.8094161 39.016961 4.7449823 38.960938 4.6972656 C 38.671914 4.704679 38.402036 4.5931942 38.324219 4.3378906 C 38.30101 4.2616908 38.303638 4.1843042 38.306641 4.109375 C 38.09061 3.9037759 37.869337 3.7044455 37.648438 3.5332031 C 37.66481 4.1812575 37.179466 4.3454718 36.46875 3.90625 C 36.261722 3.7783281 36.136741 3.5913599 36.074219 3.3359375 C 36.045224 3.3618645 36.014979 3.381533 35.986328 3.4121094 C 34.444328 5.0641094 36.839188 6.3145 37.367188 7.8125 C 37.340186 8.7361315 37.670428 9.4498621 38.130859 10.087891 C 38.535069 9.8700236 38.589844 9.9078031 38.589844 10.265625 C 38.589844 10.359612 38.556381 10.460942 38.503906 10.548828 C 38.967031 11.093292 39.483145 11.605676 39.925781 12.162109 L 37.802734 14.474609 C 36.493716 14.789471 35.247965 14.689812 34.042969 14.333984 C 34.033897 14.787472 33.670992 15.093735 32.9375 15.248047 C 32.42392 15.356087 32.07017 15.321197 31.988281 15.154297 C 31.799088 14.768907 32.04284 14.390625 32.480469 14.390625 C 32.642752 14.390625 32.872681 14.211762 33.054688 13.964844 C 32.799058 13.858892 32.541477 13.765963 32.289062 13.640625 L 31.988281 13.470703 C 31.606281 11.928703 31.587984 10.229547 30.083984 9.1855469 C 29.897984 6.7135469 29.084891 4.5714531 26.712891 3.4394531 C 26.336891 3.2614531 25.31225 3.5973125 25.15625 3.9453125 C 23.92625 6.7613125 27.036719 7.9376565 27.636719 10.097656 C 27.732719 10.431656 28.236734 10.653687 28.552734 10.929688 L 27.697266 13.761719 C 26.511266 15.265719 24.405672 16.274094 25.013672 18.746094 C 24.501672 20.026093 23.316094 19.966484 22.246094 20.146484 A 2.298 2.298 0 0 0 21.691406 19.84375 C 21.558805 20.125855 21.352708 20.183019 21.166016 19.949219 C 21.133332 19.908073 21.128146 19.816902 21.140625 19.707031 A 2.298 2.298 0 0 0 21.125 19.705078 C 20.325 17.305078 18.544734 14.818187 16.302734 16.492188 C 14.346734 17.956187 15.654078 20.672891 18.080078 21.962891 C 18.092276 21.978542 18.10498 21.994114 18.117188 22.009766 C 18.340876 21.779013 18.578383 21.597656 18.771484 21.597656 C 19.279161 21.597656 19.250331 22.100132 18.751953 22.816406 C 18.984849 23.11228 19.216707 23.406477 19.451172 23.703125 C 19.475172 24.211125 19.497484 24.714656 19.521484 25.222656 L 17.082031 27.638672 C 16.168031 27.516672 15.25575 27.395531 14.34375 27.269531 C 14.052007 27.103504 13.736945 26.950637 13.425781 26.796875 C 13.24552 26.880752 13.035889 26.983076 12.888672 27.082031 C 12.457574 27.371751 12.394589 27.36892 12.244141 27.0625 C 12.176991 26.9256 12.349059 26.705286 12.626953 26.572266 C 12.675514 26.549016 12.707422 26.514171 12.751953 26.486328 C 11.453207 25.977979 10.16599 25.925932 9.4863281 27.564453 C 8.6143281 29.666453 10.784687 30.263344 12.554688 30.527344 C 12.809354 31.460677 13.064932 32.391693 13.322266 33.318359 C 11.93798 35.31485 10.55215 37.308777 9.1640625 39.302734 C 9.1476541 39.370389 9.114717 39.417571 9.0644531 39.447266 C 9.0620762 39.45068 9.0590176 39.453617 9.0566406 39.457031 C 9.0352429 39.469124 9.0103507 39.475399 8.9882812 39.486328 C 8.7442751 39.60716 8.4544815 39.64851 8.1503906 39.662109 C 8.2865717 40.222865 8.0265156 40.496065 7.609375 39.863281 C 7.5745736 39.810492 7.5636748 39.729595 7.5410156 39.660156 C 6.1210578 39.563843 4.5701533 39.152641 4.6289062 41.1875 C 4.6729062 42.8575 7.4396719 42.150156 9.0136719 42.410156 L 10.359375 44.792969 L 6.515625 48.521484 C 5.215625 48.489484 3.6398125 48.372031 3.0078125 49.582031 C 2.2698125 51.000031 3.5534531 52.160031 4.6894531 52.582031 C 8.6034531 54.006031 7.2996875 55.931297 5.4296875 58.029297 C 2.4696875 62.783297 9.9971875 62.310438 9.3671875 65.898438 C 8.8511875 68.298438 3.663125 68.626047 6.453125 72.498047 C 8.425125 74.416047 10.724203 73.265547 12.908203 73.185547 C 13.708203 74.419547 15.473969 76.006031 15.167969 76.832031 C 13.111969 82.446031 17.21553 83.705266 20.769531 85.447266 C 20.911531 86.877266 21.199936 88.180547 23.085938 88.060547 C 24.673938 89.328547 21.286766 94.198156 25.384766 93.660156 C 25.754766 93.724156 26.240814 93.630406 26.882812 93.316406 C 29.954812 91.574406 32.800406 90.429984 32.816406 95.833984 C 32.816406 99.257984 34.923469 99.121172 37.105469 98.201172 C 38.781469 97.497172 39.876344 95.416484 42.152344 96.146484 C 44.064344 97.386484 46.774453 96.832344 48.314453 98.902344 C 51.894453 101.63034 55.513922 105.18136 58.669922 98.443359 C 59.869922 97.421359 61.145609 96.460797 61.349609 94.716797 L 65.220703 96.001953 C 70.656703 102.31195 69.020109 92.5425 71.912109 93.0625 L 74.488281 93.25 C 75.628281 95.026 76.779906 97.724719 79.253906 95.886719 C 80.763906 94.766719 80.879156 92.285094 77.785156 91.871094 C 77.281156 90.101094 79.657609 89.772562 79.599609 88.226562 C 81.091609 85.092562 85.342 85.710922 87 82.794922 L 87.029297 82.806641 C 88.855297 83.904641 90.761219 84.647313 92.949219 84.195312 C 94.763219 82.437314 95.371406 80.21325 95.441406 77.78125 C 98.165406 74.38125 95.284406 74.206344 93.066406 73.652344 C 92.356406 71.732344 93.32575 70.064172 93.84375 68.326172 C 93.99375 67.960172 94.128141 67.588937 94.244141 67.210938 C 96.314141 67.136938 98.79925 68.125844 100.03125 65.089844 C 98.03125 63.935844 96.13725 64.352436 94.28125 64.398438 C 93.36325 61.898438 94.927156 60.753578 96.785156 59.767578 C 97.999156 59.415578 99.896456 59.549641 100.06445 58.181641 C 100.28845 56.381641 98.394984 56.766641 97.208984 56.556641 C 96.156984 56.366641 95.110453 56.131969 94.064453 55.917969 C 97.014453 49.503969 97.065422 49.03675 96.357422 48.96875 C 93.793906 48.720943 92.929665 47.750586 92.716797 46.505859 C 92.440218 46.996618 91.919825 47.280067 91.683594 46.798828 C 91.626694 46.683088 91.841586 46.274875 92.160156 45.890625 C 92.431634 45.563166 92.581471 45.418601 92.683594 45.400391 C 92.761259 43.952239 93.231716 42.339569 92.894531 41.074219 C 94.960531 40.730219 96.895344 40.101047 98.527344 38.623047 C 97.571344 37.513047 95.749219 38.623437 95.199219 37.023438 C 94.235219 33.103437 89.410984 34.474547 87.708984 31.560547 A 5 5 0 0 0 87.683594 30.742188 C 88.153594 30.266188 88.62375 29.788641 89.09375 29.306641 L 91.080078 28.955078 C 92.594078 28.485078 93.371359 26.934859 92.443359 26.130859 C 90.503359 24.446859 88.188109 25.063625 86.162109 26.515625 C 81.418109 26.805625 80.430109 22.559093 78.162109 19.871094 L 79.816406 17.521484 C 82.236406 16.659484 82.237313 13.856109 83.945312 12.412109 C 84.945312 12.884109 86.055281 13.211781 86.613281 11.925781 C 87.131281 10.725781 86.434891 9.8353594 85.212891 9.6933594 C 83.012891 9.4393594 81.625953 10.536953 81.001953 12.626953 C 77.457953 16.880953 73.23 14.025813 69.25 13.757812 C 66.956 13.757812 64.530641 14.267936 62.806641 12.085938 C 62.835974 11.252603 62.865198 10.42051 62.894531 9.5898438 C 65.566531 6.9058438 65.895047 3.856625 63.873047 -0.109375 z M 36.251953 4.765625 C 36.373402 4.7874763 36.511291 4.9219688 36.572266 5.1523438 C 36.615266 5.3146237 36.509831 5.4472656 36.337891 5.4472656 C 36.166031 5.4472656 36.025391 5.2710575 36.025391 5.0546875 C 36.025391 4.8353075 36.130504 4.7437737 36.251953 4.765625 z M 28.082031 6.0175781 C 28.456773 6.0185397 29.117188 6.7046569 29.117188 7.1777344 C 29.117188 7.9586044 28.756853 8.0041625 28.230469 7.2890625 C 27.688867 6.5533025 27.63156 6.30507 27.943359 6.0625 C 27.982483 6.0320588 28.028497 6.0174408 28.082031 6.0175781 z M 26.300781 6.5136719 C 26.619333 6.535174 27.144531 7.2354389 27.144531 7.7226562 C 27.144531 8.2448262 26.695772 8.3338306 26.410156 7.8691406 C 26.078851 7.3300206 25.96911 6.7111481 26.177734 6.5488281 C 26.212664 6.5216494 26.255274 6.5106001 26.300781 6.5136719 z M 37.595703 6.9980469 C 37.665197 6.9945459 37.738967 7.0133231 37.804688 7.0644531 C 38.025388 7.2361931 37.879906 7.6835936 37.603516 7.6835938 C 37.507816 7.6835938 37.378826 7.5783819 37.316406 7.4511719 C 37.206921 7.2281819 37.387221 7.0085497 37.595703 6.9980469 z M 57.484375 8.2285156 C 58.014065 8.3578756 57.979389 8.8480563 57.380859 9.6914062 C 56.982379 10.252886 56.765229 10.405423 56.662109 10.195312 C 56.439209 9.7411632 57.109755 8.1370056 57.484375 8.2285156 z M 40.052734 9.1738281 C 40.653944 9.1738281 40.753424 9.360812 40.621094 10.232422 C 40.499184 11.035562 40.170394 11.103031 39.683594 10.425781 C 39.236764 9.8041916 39.422104 9.1738281 40.052734 9.1738281 z M 53.361328 9.984375 C 53.482778 9.9625237 53.589844 10.052129 53.589844 10.271484 C 53.589844 10.487854 53.449224 10.664062 53.277344 10.664062 C 53.105494 10.664062 52.999989 10.531421 53.042969 10.369141 C 53.103929 10.138791 53.239878 10.006226 53.361328 9.984375 z M 56.167969 10.914062 C 56.520379 10.914062 56.347991 11.824928 55.894531 12.361328 C 55.389021 12.959178 55.167969 13.040506 55.167969 12.628906 C 55.167969 12.247166 55.945379 10.914063 56.167969 10.914062 z M 40.6875 11.494141 C 40.799989 11.473899 40.932734 11.526336 41.066406 11.666016 C 41.573806 12.196176 41.412709 13.075376 40.730469 13.503906 C 39.954509 13.991246 39.972656 13.992869 39.972656 13.412109 C 39.972656 13.146869 40.061452 12.859851 40.169922 12.775391 C 40.278422 12.690991 40.367187 12.411457 40.367188 12.154297 C 40.367188 11.766059 40.500018 11.527877 40.6875 11.494141 z M 48.539062 14.232422 C 48.580548 14.228345 48.615463 14.236714 48.642578 14.257812 C 48.968438 14.511374 48.514521 15.384766 48.056641 15.384766 C 47.843351 15.384766 47.667969 15.291231 47.667969 15.175781 C 47.667969 14.84945 48.248674 14.260961 48.539062 14.232422 z M 41.417969 14.751953 C 41.478839 14.749445 41.547751 14.784709 41.613281 14.867188 C 41.767751 15.061686 41.767751 15.21174 41.613281 15.40625 C 41.458761 15.60076 41.361065 15.60076 41.265625 15.40625 C 41.111635 15.092593 41.235359 14.759478 41.417969 14.751953 z M 40.628906 15.25 C 40.68977 15.247492 40.756743 15.280804 40.822266 15.363281 C 40.976786 15.557791 40.976786 15.709797 40.822266 15.904297 C 40.667796 16.098807 40.572024 16.098807 40.476562 15.904297 C 40.322587 15.590639 40.446314 15.257525 40.628906 15.25 z M 40.423828 16.738281 C 40.904952 16.650483 41.354371 18.595875 40.898438 19.072266 C 40.702818 19.276706 40.573674 19.272381 40.402344 19.056641 C 40.141824 18.728641 40.082652 16.972683 40.326172 16.783203 C 40.358262 16.758232 40.391753 16.744134 40.423828 16.738281 z M 27.947266 17.621094 C 28.223167 17.621094 28.335991 17.757809 28.292969 18.037109 C 28.222499 18.494399 27.885337 18.721378 27.673828 18.455078 C 27.394469 18.103378 27.552514 17.621094 27.947266 17.621094 z M 41.847656 17.621094 C 42.010496 17.621094 42.142578 17.783559 42.142578 17.980469 C 42.142578 18.395559 41.861894 18.675239 41.677734 18.443359 C 41.441894 18.146409 41.550456 17.621094 41.847656 17.621094 z M 28.943359 19.679688 C 29.150057 19.727554 29.331187 19.919963 29.265625 20.167969 C 29.166815 20.541389 28.605016 20.717462 28.458984 20.419922 C 28.401794 20.303332 28.429011 20.057257 28.519531 19.873047 C 28.569568 19.771114 28.647809 19.70934 28.736328 19.683594 C 28.802718 19.664284 28.87446 19.663732 28.943359 19.679688 z M 38.203125 21.142578 C 38.247109 21.134225 38.294915 21.134644 38.34375 21.146484 C 38.56223 21.199484 38.689453 21.457743 38.689453 21.845703 C 38.689453 22.553983 38.067086 22.853858 37.878906 22.236328 C 37.721739 21.720883 37.895235 21.20105 38.203125 21.142578 z M 41.150391 22.402344 C 41.228377 22.399531 41.306945 22.433844 41.375 22.519531 C 41.6027 22.806241 41.46094 23.335938 41.15625 23.335938 C 41.06045 23.335938 40.922509 23.214966 40.849609 23.066406 C 40.697082 22.755689 40.916431 22.410782 41.150391 22.402344 z M 29.693359 23.119141 C 29.76192 23.122703 29.820745 23.144297 29.853516 23.185547 C 29.919136 23.268147 29.801844 23.327206 29.59375 23.316406 C 29.363846 23.304506 29.317178 23.245326 29.474609 23.166016 C 29.545844 23.130116 29.624799 23.115578 29.693359 23.119141 z M 38.611328 24.173828 C 38.907958 24.231371 39.255382 24.727459 39.095703 25.052734 C 38.898763 25.453974 38.398309 25.383677 38.261719 24.935547 C 38.196519 24.721387 38.245201 24.417519 38.369141 24.261719 C 38.403854 24.21801 38.444118 24.19083 38.488281 24.177734 C 38.526924 24.166276 38.568952 24.165608 38.611328 24.173828 z M 19.654297 26.478516 C 19.791746 26.512518 19.854004 26.729002 19.775391 27.107422 C 19.716281 27.392272 19.791686 27.646742 19.957031 27.726562 C 20.327911 27.905732 20.316893 28.306641 19.941406 28.306641 C 19.778562 28.306641 19.644531 28.193301 19.644531 28.056641 C 19.644531 27.588601 18.902349 27.808211 18.798828 28.306641 C 18.687127 28.844021 17.797854 29.014469 17.566406 28.542969 C 17.33377 28.068979 17.651332 27.560547 18.179688 27.560547 C 18.500346 27.560547 18.84988 27.32162 19.089844 26.9375 C 19.305144 26.5929 19.516848 26.444513 19.654297 26.478516 z M 23.087891 26.648438 C 23.128172 26.652474 23.166496 26.665944 23.199219 26.691406 C 23.353203 26.811256 23.348757 26.958514 23.183594 27.208984 C 22.918979 27.610364 22.675941 27.658444 22.519531 27.339844 C 22.386784 27.069443 22.80592 26.620181 23.087891 26.648438 z M 21.027344 27.0625 C 21.135849 27.0625 21.224609 27.17584 21.224609 27.3125 C 21.224609 27.44916 21.135833 27.560547 21.027344 27.560547 C 20.918838 27.560547 20.830078 27.44916 20.830078 27.3125 C 20.830078 27.17584 20.918761 27.0625 21.027344 27.0625 z M 11.353516 27.388672 C 11.85446 27.429242 12.117928 27.70152 11.839844 28.03125 C 11.523169 28.4067 10.488182 28.559006 10.119141 28.285156 C 9.6243759 27.917996 9.8492752 27.630721 10.785156 27.431641 C 10.993431 27.387338 11.186534 27.375149 11.353516 27.388672 z M 58.775391 27.902344 C 58.796057 27.876223 58.824004 27.910656 58.855469 28.009766 C 58.912369 28.189126 58.905344 28.403788 58.839844 28.486328 C 58.774244 28.568928 58.727788 28.422066 58.736328 28.160156 C 58.741428 28.015441 58.754724 27.928465 58.775391 27.902344 z M 14.425781 27.904297 C 14.807549 27.858018 15.531888 28.311926 15.451172 28.617188 C 15.318302 29.119608 14.811265 29.105201 14.439453 28.587891 C 14.236103 28.305021 14.173325 28.045551 14.287109 27.957031 C 14.324361 27.928045 14.371243 27.910908 14.425781 27.904297 z M 21.6875 28.134766 C 21.902213 28.231166 21.918836 29.051305 21.720703 29.734375 C 21.6173 30.090525 21.102884 30.151152 20.943359 29.826172 C 20.779903 29.493262 21.428719 28.018556 21.6875 28.134766 z M 52.667969 28.419922 C 52.728835 28.417414 52.795796 28.450723 52.861328 28.533203 C 53.015798 28.727683 53.015798 28.877746 52.861328 29.072266 C 52.706808 29.266756 52.609112 29.266756 52.513672 29.072266 C 52.359727 28.758608 52.485369 28.427446 52.667969 28.419922 z M 16.917969 29.324219 C 17.036925 29.336253 17.079553 29.425565 17.037109 29.585938 C 16.988469 29.769828 16.789147 29.958629 16.595703 30.005859 C 16.370714 30.060759 16.277444 29.971572 16.333984 29.757812 C 16.382624 29.573943 16.579994 29.385091 16.773438 29.337891 C 16.829685 29.324166 16.878317 29.320207 16.917969 29.324219 z M 57.929688 29.796875 C 58.038198 29.796875 58.128906 29.964942 58.128906 30.169922 C 58.128906 30.374912 58.038166 30.541016 57.929688 30.541016 C 57.821047 30.541016 57.732422 30.374912 57.732422 30.169922 C 57.732422 29.964942 57.821067 29.796875 57.929688 29.796875 z M 17.710938 29.830078 C 17.767892 29.82314 17.836228 29.827177 17.917969 29.841797 C 18.208219 29.893697 18.363281 30.091434 18.363281 30.414062 C 18.363281 30.906903 17.875101 31.210449 17.613281 30.880859 C 17.537191 30.785059 17.474609 30.494405 17.474609 30.234375 C 17.474609 29.973247 17.540075 29.850893 17.710938 29.830078 z M 15.697266 30.542969 C 15.805771 30.542969 15.896484 30.709083 15.896484 30.914062 C 15.896484 31.119022 15.805769 31.287109 15.697266 31.287109 C 15.58876 31.287109 15.5 31.119022 15.5 30.914062 C 15.5 30.709083 15.588749 30.542969 15.697266 30.542969 z M 14.798828 30.867188 C 14.841017 30.877465 14.879144 30.901852 14.912109 30.943359 C 15.05177 31.119209 14.997044 31.335733 14.736328 31.632812 C 14.464131 31.942953 14.316322 31.984134 14.214844 31.777344 C 14.039649 31.420431 14.503504 30.795238 14.798828 30.867188 z M 16.677734 33.771484 C 17.122657 33.771484 17.206907 34.257167 16.841797 34.716797 C 16.550361 35.083707 16.352732 35.094456 16.185547 34.753906 C 15.974154 34.323266 16.250054 33.771484 16.677734 33.771484 z M 76.623047 35.175781 C 76.643988 35.149661 76.67166 35.184098 76.703125 35.283203 C 76.760225 35.462553 76.7532 35.677206 76.6875 35.759766 C 76.6219 35.842366 76.575524 35.695504 76.583984 35.433594 C 76.587984 35.288869 76.602106 35.201901 76.623047 35.175781 z M 15.830078 35.759766 C 15.983753 35.793993 16.093962 35.987494 16.056641 36.318359 C 16.007881 36.750789 15.860302 36.881574 15.402344 36.896484 C 15.076694 36.906884 14.477373 37.004238 14.070312 37.111328 C 13.483124 37.265848 13.330078 37.230459 13.330078 36.943359 C 13.330078 36.002429 14.791323 35.334436 15.042969 36.160156 C 15.154932 36.527686 15.178417 36.527686 15.341797 36.160156 C 15.478987 35.851531 15.676403 35.725538 15.830078 35.759766 z M 18.126953 37.041016 C 18.395894 37.043219 18.672923 37.267209 18.560547 37.496094 C 18.406281 37.810314 17.929962 37.822385 17.779297 37.515625 C 17.716877 37.388435 17.75947 37.210974 17.875 37.121094 C 17.948012 37.064279 18.037306 37.040281 18.126953 37.041016 z M 12.738281 37.25 C 12.846799 37.25 12.935547 37.361387 12.935547 37.498047 C 12.935547 37.634697 12.846785 37.748047 12.738281 37.748047 C 12.629776 37.748047 12.541016 37.634697 12.541016 37.498047 C 12.541016 37.361387 12.629791 37.25 12.738281 37.25 z M 11.708984 37.552734 C 11.757176 37.554592 11.803813 37.566712 11.847656 37.587891 C 12.011814 37.667191 12.146484 37.958728 12.146484 38.236328 C 12.146484 38.631488 12.018211 38.740234 11.554688 38.740234 C 11.183385 38.740234 10.960938 38.613118 10.960938 38.398438 C 10.960938 37.968986 11.371645 37.539734 11.708984 37.552734 z M 84.03125 39.306641 C 84.35822 39.306641 84.324319 39.495239 83.855469 40.324219 C 83.432999 41.071199 82.882812 41.293517 82.882812 40.716797 C 82.882812 40.316977 83.70585 39.306641 84.03125 39.306641 z M 84.84375 41.097656 C 84.922357 41.094564 85.005361 41.134441 85.080078 41.228516 C 85.332698 41.546556 85.175119 42.289063 84.855469 42.289062 C 84.740069 42.289062 84.592624 42.112597 84.527344 41.898438 C 84.403976 41.4937 84.60793 41.106932 84.84375 41.097656 z M 82.679688 41.105469 C 82.757675 41.102655 82.836234 41.136971 82.904297 41.222656 C 83.132017 41.509376 82.990267 42.039062 82.685547 42.039062 C 82.589847 42.039062 82.451826 41.918091 82.378906 41.769531 C 82.226379 41.458806 82.445724 41.113909 82.679688 41.105469 z M 81.714844 43.085938 C 81.995581 43.046101 82.323112 43.285759 82.242188 43.591797 C 82.132257 44.007147 81.572818 44.126694 81.398438 43.771484 C 81.321938 43.615354 81.353297 43.369452 81.466797 43.226562 C 81.533097 43.143088 81.621265 43.099216 81.714844 43.085938 z M 87.666016 43.814453 C 87.697561 43.816791 87.724765 43.830568 87.746094 43.857422 C 87.910544 44.064442 87.673363 44.773438 87.439453 44.773438 C 87.333823 44.773438 87.198162 44.673844 87.138672 44.552734 C 87.025876 44.322951 87.4452 43.798088 87.666016 43.814453 z M 80.982422 44.041016 C 81.131067 44.002246 81.306222 44.081106 81.414062 44.300781 C 81.570273 44.618981 81.049026 45.362915 80.847656 45.109375 C 80.772656 45.014975 80.712891 44.732962 80.712891 44.482422 C 80.712891 44.234617 80.833777 44.079786 80.982422 44.041016 z M 80.316406 46.015625 C 80.424896 46.015625 80.515625 46.127022 80.515625 46.263672 C 80.515625 46.400332 80.424946 46.511719 80.316406 46.511719 C 80.207916 46.511719 80.119141 46.400332 80.119141 46.263672 C 80.119141 46.127022 80.207856 46.015625 80.316406 46.015625 z M 86.162109 46.505859 C 86.236702 46.493996 86.303717 46.512538 86.349609 46.570312 C 86.401809 46.636012 86.388813 46.873116 86.320312 47.097656 C 86.163303 47.612796 85.646484 47.63364 85.646484 47.125 C 85.646484 46.843045 85.938331 46.541451 86.162109 46.505859 z M 79.796875 47.074219 C 79.916164 47.106265 79.945302 47.352492 79.851562 47.804688 C 79.630472 48.871268 77.760866 52.068824 77.291016 52.183594 C 77.110146 52.227794 76.962891 52.151625 76.962891 52.015625 C 76.962891 51.715425 78.519812 48.665419 79.201172 47.630859 C 79.468307 47.225249 79.677586 47.042172 79.796875 47.074219 z M 93.748047 48.251953 C 93.988187 48.251953 93.9897 48.924818 93.75 49.111328 C 93.64889 49.189928 93.511549 49.140923 93.443359 49.001953 C 93.297809 48.705453 93.481567 48.251953 93.748047 48.251953 z M 90.769531 48.808594 C 90.839019 48.805095 90.910848 48.823865 90.976562 48.875 C 91.197262 49.04674 91.053714 49.494141 90.777344 49.494141 C 90.681644 49.494141 90.550731 49.388929 90.488281 49.261719 C 90.378826 49.038729 90.561067 48.819091 90.769531 48.808594 z M 84.460938 49.742188 C 84.569438 49.742188 84.658203 49.853574 84.658203 49.990234 C 84.658203 50.126884 84.569487 50.238281 84.460938 50.238281 C 84.352447 50.238281 84.263672 50.126884 84.263672 49.990234 C 84.263672 49.853574 84.352388 49.742187 84.460938 49.742188 z M 21.107422 50.427734 C 21.254527 50.431569 21.416823 50.545918 21.484375 50.767578 C 21.643861 51.290728 21.268652 51.635497 20.960938 51.248047 C 20.888558 51.156947 20.830078 50.9322 20.830078 50.75 C 20.830078 50.5301 20.960317 50.423899 21.107422 50.427734 z M 41.761719 50.703125 C 41.932919 50.709423 41.996593 50.952246 41.806641 51.191406 C 41.664861 51.369836 41.554053 51.372735 41.470703 51.203125 C 41.402403 51.064005 41.443247 50.876616 41.560547 50.785156 C 41.636404 50.726129 41.704652 50.701026 41.761719 50.703125 z M 89.583984 51.439453 C 89.63548 51.444466 89.684367 51.475178 89.732422 51.525391 C 90.190422 52.003921 90.017483 52.660341 89.345703 52.994141 C 88.992933 53.169441 88.638051 53.357669 88.556641 53.412109 C 88.475241 53.466509 88.408203 53.383866 88.408203 53.228516 C 88.408203 53.073176 88.649309 52.565552 88.943359 52.101562 C 89.245962 51.62412 89.429498 51.424416 89.583984 51.439453 z M 42.583984 52.441406 C 42.61553 52.443744 42.644684 52.45752 42.666016 52.484375 C 42.830476 52.691395 42.591332 53.400391 42.357422 53.400391 C 42.251852 53.400391 42.118044 53.300887 42.058594 53.179688 C 41.945789 52.949913 42.363165 52.42504 42.583984 52.441406 z M 82.773438 52.804688 C 82.813719 52.808723 82.85009 52.822195 82.882812 52.847656 C 83.036822 52.967486 83.034321 53.116718 82.869141 53.367188 C 82.604541 53.768588 82.361478 53.816647 82.205078 53.498047 C 82.072358 53.227663 82.491468 52.776437 82.773438 52.804688 z M 24.183594 53.162109 C 24.39756 53.194158 24.645368 53.326036 24.783203 53.535156 C 25.169287 54.120846 24.75291 54.471709 24.224609 54.005859 C 23.984785 53.794389 23.789063 53.515629 23.789062 53.386719 C 23.789062 53.198234 23.969628 53.130061 24.183594 53.162109 z M 82.035156 54.214844 C 82.357396 54.214844 82.370287 55.00883 82.054688 55.40625 C 81.704278 55.84742 81.304688 55.768642 81.304688 55.257812 C 81.304688 54.734612 81.669056 54.214844 82.035156 54.214844 z M 78.132812 55.025391 C 78.391182 54.964748 78.527609 55.274272 78.332031 55.734375 C 78.157551 56.144875 78.208076 56.315672 78.628906 56.732422 C 78.908316 57.009142 79.087111 57.339134 79.025391 57.464844 C 78.826641 57.869744 78.573094 57.710588 78.058594 56.861328 C 77.479284 55.905108 77.442837 55.633637 77.841797 55.216797 C 77.947582 55.106264 78.046689 55.045605 78.132812 55.025391 z M 34.742188 55.058594 C 35.082836 54.983094 35.093756 57.008921 34.753906 57.363281 C 34.502526 57.625941 34.428363 57.606613 34.320312 57.251953 C 34.160612 56.727853 34.470056 55.118864 34.742188 55.058594 z M 41.970703 55.884766 C 42.242063 55.884766 42.347884 56.021516 42.302734 56.316406 C 42.227034 56.811476 41.651044 57.035821 41.458984 56.644531 C 41.268444 56.256471 41.518083 55.884766 41.970703 55.884766 z M 51.421875 56.046875 C 51.567317 56.062562 51.741074 56.139004 51.927734 56.292969 C 52.416454 56.696139 52.425287 56.741798 52.091797 57.048828 C 51.655057 57.450868 51.559106 57.454955 51.259766 57.078125 C 50.799663 56.498832 50.985548 55.999814 51.421875 56.046875 z M 92.902344 56.128906 C 92.95723 56.103198 93.001654 56.104374 93.027344 56.136719 C 93.262054 56.432219 93.136366 56.923158 92.634766 57.673828 C 92.072006 58.515868 91.806635 58.622785 91.640625 58.078125 C 91.53839 57.742799 92.518139 56.308863 92.902344 56.128906 z M 86.59375 56.34375 C 86.755755 56.35629 86.830078 56.640453 86.830078 57.208984 C 86.830078 57.944434 86.223071 59.082719 85.988281 58.787109 C 85.705001 58.430449 85.845538 57.022911 86.205078 56.613281 C 86.367963 56.427686 86.496547 56.336226 86.59375 56.34375 z M 79.855469 56.791016 C 80.215665 56.820179 80.895965 57.556501 80.902344 58.003906 C 80.906344 58.317536 80.752939 58.4375 80.349609 58.4375 C 80.042079 58.4375 79.732516 58.364587 79.660156 58.273438 C 79.458636 58.019737 79.502446 56.995649 79.722656 56.824219 C 79.758104 56.796636 79.804012 56.786849 79.855469 56.791016 z M 43.921875 57.003906 C 44.108535 57.003906 44.237914 57.296647 44.277344 57.810547 C 44.323644 58.416557 44.259627 58.619141 44.023438 58.619141 C 43.850347 58.619141 43.659699 58.456776 43.599609 58.259766 C 43.425829 57.689546 43.604235 57.003906 43.921875 57.003906 z M 88.966797 57.195312 C 89.468107 57.195312 89.629841 57.459959 89.369141 57.855469 C 89.041861 58.351949 88.605469 58.259919 88.605469 57.693359 C 88.605469 57.377139 88.736557 57.195312 88.966797 57.195312 z M 30.283203 57.375 C 30.65841 57.375 31.289063 58.110075 31.289062 58.546875 C 31.289062 58.792925 30.676721 59.103768 30.177734 59.111328 C 30.054669 59.114328 29.906545 58.808624 29.849609 58.433594 C 29.724246 57.608374 29.819805 57.375 30.283203 57.375 z M 94.876953 58.234375 C 94.947674 58.213595 95.044553 58.212557 95.166016 58.234375 C 95.409136 58.277975 95.637638 58.508897 95.673828 58.748047 C 95.749328 59.246447 95.314487 59.329876 94.960938 58.884766 C 94.685327 58.537763 94.66479 58.296716 94.876953 58.234375 z M 45.990234 58.617188 C 46.153024 58.617188 46.287109 58.779633 46.287109 58.976562 C 46.287109 59.391644 46.004513 59.671313 45.820312 59.439453 C 45.584463 59.142493 45.693004 58.617186 45.990234 58.617188 z M 28.214844 59.3125 C 28.366066 59.334845 28.427734 59.466328 28.427734 59.736328 C 28.427734 60.163268 28.28139 60.239473 27.396484 60.283203 C 26.830015 60.311203 26.310701 60.219678 26.242188 60.080078 C 26.056556 59.701948 26.314601 59.491729 27.013672 59.449219 C 27.357117 59.428319 27.816128 59.371659 28.033203 59.324219 C 28.104693 59.308594 28.164436 59.305052 28.214844 59.3125 z M 50.990234 59.660156 C 51.297841 59.674973 52.025058 60.373227 51.90625 60.615234 C 51.72969 60.974874 51.516134 60.903106 51.121094 60.353516 C 50.923984 60.079366 50.818419 59.785219 50.886719 59.699219 C 50.909807 59.670145 50.946291 59.65804 50.990234 59.660156 z M 78.134766 60.726562 C 78.20164 60.72128 78.27098 60.740468 78.335938 60.791016 C 78.598618 60.995386 78.362044 61.667969 78.027344 61.667969 C 77.876144 61.667969 77.751953 61.505514 77.751953 61.308594 C 77.751953 60.983836 77.934143 60.742409 78.134766 60.726562 z M 52.601562 60.851562 C 52.820802 60.851562 52.996094 61.017559 52.996094 61.224609 C 52.996094 61.602879 52.580204 61.734241 52.339844 61.431641 C 52.089664 61.116701 52.208352 60.851562 52.601562 60.851562 z M 25.478516 60.853516 C 25.840855 60.853516 25.843212 61.204638 25.484375 61.580078 C 25.294045 61.778958 25.165559 61.789438 25.078125 61.611328 C 24.907825 61.264388 25.124815 60.853516 25.478516 60.853516 z M 77 61.052734 C 77.212081 61.012426 77.357422 61.192006 77.357422 61.542969 C 77.357422 62.077999 77.03293 62.198731 76.75 61.769531 C 76.53879 61.449151 76.541868 61.343559 76.767578 61.167969 C 76.850221 61.103664 76.929306 61.06617 77 61.052734 z M 22.644531 61.121094 C 22.81622 61.092449 23.014895 61.197261 23.179688 61.447266 C 23.357596 61.717096 23.292962 61.959513 22.888672 62.564453 C 22.319714 63.415773 21.986535 63.525023 21.625 62.976562 C 21.35695 62.569944 21.506139 62.095703 21.902344 62.095703 C 22.046091 62.095703 22.210807 61.872919 22.267578 61.599609 C 22.32726 61.312154 22.472842 61.149739 22.644531 61.121094 z M 40.761719 61.599609 C 41.024819 61.599609 41.15625 61.764423 41.15625 62.095703 C 41.15625 62.426983 41.024819 62.59375 40.761719 62.59375 C 40.498589 62.59375 40.367188 62.426983 40.367188 62.095703 C 40.367188 61.764423 40.498589 61.599609 40.761719 61.599609 z M 83.832031 61.751953 C 83.89389 61.765908 83.936873 61.851437 83.986328 62.013672 C 84.053428 62.234042 84.057041 62.580176 83.994141 62.785156 C 83.831531 63.318726 83.277344 63.246216 83.277344 62.691406 C 83.277344 62.434836 83.408783 62.088702 83.570312 61.919922 C 83.689233 61.795667 83.770173 61.737998 83.832031 61.751953 z M 50.464844 61.871094 C 50.57027 61.902199 50.628906 62.087197 50.628906 62.419922 C 50.628906 62.734232 50.730536 63.116704 50.853516 63.271484 C 50.976446 63.426294 51.022351 63.729179 50.957031 63.943359 C 50.805051 64.441989 50.234375 64.452981 50.234375 63.957031 C 50.234375 63.750221 50.12925 63.367772 50 63.107422 C 49.81589 62.736162 49.820148 62.548354 50.023438 62.240234 C 50.207062 61.961699 50.359417 61.839989 50.464844 61.871094 z M 18.988281 62.433594 C 19.108288 62.419097 19.253062 62.494361 19.410156 62.671875 C 19.606192 62.893425 19.952385 62.998451 20.25 62.925781 C 20.557994 62.850581 20.848723 62.944309 20.996094 63.167969 C 21.19642 63.471879 21.122904 63.625514 20.566406 64.058594 C 19.781036 64.669664 19.887349 64.660046 19.201172 64.191406 C 18.840773 63.945256 18.658203 63.618173 18.658203 63.220703 C 18.658203 62.733897 18.788271 62.457755 18.988281 62.433594 z M 36.208984 62.634766 C 36.253215 62.623123 36.307861 62.62546 36.371094 62.640625 C 36.916694 62.771555 36.927152 63.849404 36.388672 64.371094 C 35.892992 64.851124 35.433594 64.966538 35.433594 64.611328 C 35.433594 64.491458 35.565686 64.254094 35.728516 64.083984 C 35.891306 63.913874 36.025391 63.500936 36.025391 63.166016 C 36.025391 62.831598 36.076292 62.669693 36.208984 62.634766 z M 30.886719 63.148438 C 30.956209 63.144939 31.028024 63.165657 31.09375 63.216797 C 31.314437 63.388527 31.170942 63.835938 30.894531 63.835938 C 30.798781 63.835938 30.667908 63.730706 30.605469 63.603516 C 30.496031 63.380526 30.678249 63.158931 30.886719 63.148438 z M 76.777344 63.158203 C 76.892274 63.158203 76.930391 63.271543 76.863281 63.408203 C 76.796281 63.544853 76.702157 63.65625 76.654297 63.65625 C 76.606397 63.65625 76.568359 63.544853 76.568359 63.408203 C 76.568359 63.271543 76.662444 63.158203 76.777344 63.158203 z M 40.845703 63.337891 C 41.461833 63.337891 41.528704 65.166259 40.958984 66.443359 C 40.716244 66.987549 40.564453 67.789391 40.564453 68.525391 C 40.564453 70.113681 39.833456 71.943152 39.535156 71.101562 C 39.383086 70.672372 39.758387 67.264645 39.992188 66.953125 C 40.089588 66.823285 40.169922 66.172753 40.169922 65.507812 C 40.169922 64.179124 40.431483 63.337891 40.845703 63.337891 z M 42.902344 63.402344 C 43.023808 63.380493 43.128906 63.472041 43.128906 63.691406 C 43.128906 63.907796 42.988246 64.083984 42.816406 64.083984 C 42.644506 64.083984 42.539081 63.951323 42.582031 63.789062 C 42.642986 63.558702 42.78088 63.424195 42.902344 63.402344 z M 88.917969 63.408203 C 89.266459 63.408203 89.205754 63.942143 88.839844 64.095703 C 88.710954 64.149803 88.605469 64.017121 88.605469 63.800781 C 88.605469 63.584411 88.746109 63.408203 88.917969 63.408203 z M 82.746094 64.472656 C 82.785226 64.469209 82.821677 64.477179 82.853516 64.501953 C 83.016086 64.628463 83.023103 64.818239 82.876953 65.162109 C 82.660263 65.671869 82.383698 65.783591 82.210938 65.431641 C 82.068671 65.141832 82.47217 64.496785 82.746094 64.472656 z M 42.451172 65.335938 C 42.614084 65.350893 42.793724 65.482187 42.865234 65.716797 C 43.028334 66.251957 42.679446 66.649884 42.378906 66.271484 C 42.248666 66.107504 42.142578 65.828051 42.142578 65.650391 C 42.142578 65.422361 42.288259 65.320981 42.451172 65.335938 z M 53.146484 65.429688 C 53.201308 65.445988 53.251423 65.489987 53.283203 65.554688 C 53.346803 65.684138 53.313736 65.855517 53.210938 65.935547 C 53.108047 66.015547 52.971723 65.97315 52.908203 65.84375 C 52.844603 65.71429 52.877769 65.542891 52.980469 65.462891 C 53.031854 65.422891 53.091661 65.413386 53.146484 65.429688 z M 45.054688 65.632812 C 45.379632 65.605148 45.892578 66.133995 45.892578 66.570312 C 45.892578 67.516103 44.571931 69.927616 44.488281 69.134766 C 44.430481 68.586786 44.56956 67.654103 44.75 67.376953 C 44.86081 67.206953 44.909842 66.785133 44.857422 66.439453 C 44.804822 66.093763 44.835734 65.753021 44.927734 65.681641 C 44.964399 65.653111 45.008267 65.636765 45.054688 65.632812 z M 21.833984 65.896484 C 21.95717 65.927307 22.110226 66.082379 22.353516 66.388672 C 22.735145 66.869152 22.826498 67.135865 22.673828 67.328125 C 22.521121 67.520355 22.298131 67.420993 21.890625 66.976562 C 21.430753 66.475152 21.370728 66.294799 21.572266 66.037109 C 21.622867 65.972414 21.669718 65.92792 21.71875 65.90625 C 21.755524 65.889998 21.792923 65.88621 21.833984 65.896484 z M 31.091797 66.320312 C 31.200303 66.320312 31.289062 66.431709 31.289062 66.568359 C 31.289062 66.705039 31.2003 66.818359 31.091797 66.818359 C 30.983292 66.818359 30.894531 66.705039 30.894531 66.568359 C 30.894531 66.431709 30.983306 66.320313 31.091797 66.320312 z M 81.171875 66.453125 C 81.212359 66.457174 81.251688 66.472437 81.287109 66.5 C 81.557959 66.71074 81.337169 67.342984 80.886719 67.646484 C 80.583169 67.851024 80.515625 67.810225 80.515625 67.421875 C 80.515625 66.932785 80.888488 66.424785 81.171875 66.453125 z M 42.328125 66.869141 C 42.406734 66.866047 42.489736 66.905925 42.564453 67 C 42.817083 67.31802 42.659514 68.060547 42.339844 68.060547 C 42.224434 68.060547 42.077019 67.884102 42.011719 67.669922 C 41.888374 67.265199 42.092298 66.878421 42.328125 66.869141 z M 86.960938 66.886719 C 87.289457 66.886719 87.307551 67.676205 86.988281 68.078125 C 86.725191 68.409365 86.559782 68.451306 86.382812 68.228516 C 86.194012 67.990796 86.669778 66.886719 86.960938 66.886719 z M 26.78125 67.359375 C 26.97651 67.405808 27.117807 67.778074 27.175781 68.425781 C 27.240511 69.148321 26.836566 69.575591 26.494141 69.144531 C 26.276658 68.870721 26.332446 67.608868 26.570312 67.423828 C 26.646047 67.364898 26.716163 67.343897 26.78125 67.359375 z M 49.505859 67.382812 C 49.548226 67.383267 49.587823 67.396418 49.623047 67.423828 C 49.948117 67.676758 49.884891 68.012491 49.457031 68.300781 C 49.187851 68.482161 49.033693 68.476966 48.939453 68.285156 C 48.786984 67.974601 49.209291 67.379639 49.505859 67.382812 z M 42.134766 68.369141 C 42.335311 68.372969 42.537109 68.566682 42.537109 68.818359 C 42.537109 69.120679 42.003599 69.123526 41.855469 68.822266 C 41.793069 68.695076 41.831406 68.519424 41.941406 68.433594 C 42.000291 68.387786 42.067917 68.367864 42.134766 68.369141 z M 79.412109 69.693359 C 79.451109 69.697351 79.487281 69.711236 79.519531 69.736328 C 79.662621 69.847678 79.664104 70.045056 79.521484 70.378906 C 79.286534 70.931606 78.738281 71.030351 78.738281 70.519531 C 78.738281 70.11788 79.139112 69.665419 79.412109 69.693359 z M 25.759766 70.542969 C 26.128783 70.542969 27.210229 71.949228 27.066406 72.242188 C 26.854285 72.674288 26.679227 72.600824 26.095703 71.833984 C 25.557919 71.127294 25.405967 70.542969 25.759766 70.542969 z M 19.251953 70.570312 C 19.325304 70.57154 19.399525 70.63097 19.494141 70.75 C 19.686959 70.99279 19.646104 71.086192 19.296875 71.201172 C 19.054524 71.280972 18.855469 71.500403 18.855469 71.689453 C 18.855469 72.091133 18.316849 72.128579 17.816406 71.761719 C 17.348095 71.418459 17.568279 71.039063 18.236328 71.039062 C 18.533804 71.039062 18.88342 70.906177 19.013672 70.742188 C 19.10576 70.626251 19.178603 70.569086 19.251953 70.570312 z M 44.707031 70.582031 C 44.962993 70.64111 44.971748 71.166128 44.701172 71.802734 C 44.451372 72.390174 44.146519 72.41972 43.980469 71.875 C 43.828089 71.37482 44.145721 70.695971 44.582031 70.587891 C 44.628538 70.576366 44.670465 70.573591 44.707031 70.582031 z M 48.853516 71.041016 C 49.299646 71.041016 49.467486 71.582143 49.316406 72.533203 C 49.192316 73.314453 48.894147 73.477266 48.498047 72.978516 C 48.036417 72.397356 48.285396 71.041016 48.853516 71.041016 z M 41.849609 71.970703 C 41.958347 71.960456 42.065399 72.0819 42.105469 72.34375 C 42.147069 72.61572 42.050856 72.779297 41.847656 72.779297 C 41.658086 72.779297 41.548698 72.619601 41.585938 72.394531 L 41.585938 72.392578 C 41.630538 72.122718 41.740872 71.980951 41.849609 71.970703 z M 77.478516 72.890625 C 77.502105 72.879496 77.52755 72.879238 77.554688 72.890625 C 77.663178 72.936225 77.751953 73.084043 77.751953 73.220703 C 77.751953 73.357353 77.663237 73.507184 77.554688 73.552734 C 77.446197 73.598334 77.357422 73.448473 77.357422 73.220703 C 77.357422 73.049891 77.407746 72.924013 77.478516 72.890625 z M 26.464844 74.351562 C 26.746803 74.323308 27.163988 74.772576 27.03125 75.042969 C 26.874853 75.361549 26.633768 75.315494 26.369141 74.914062 C 26.204089 74.663634 26.19954 74.514361 26.353516 74.394531 C 26.386235 74.369069 26.424564 74.355599 26.464844 74.351562 z M 55.835938 74.570312 C 56.0963 74.601227 56.253906 74.753476 56.253906 75.019531 C 56.253906 75.260701 56.01365 75.4166 55.5625 75.46875 C 55.1826 75.51265 54.786714 75.652397 54.683594 75.779297 C 54.433704 76.086867 53.644484 76.073936 53.490234 75.759766 C 53.422734 75.622146 53.527729 75.444174 53.724609 75.365234 C 53.921419 75.286234 54.405068 75.052343 54.798828 74.845703 C 55.212273 74.628748 55.575574 74.539398 55.835938 74.570312 z M 78.787109 75.830078 C 79.018219 75.830078 78.960501 76.192965 78.712891 76.296875 C 78.590841 76.348175 78.525716 76.263125 78.566406 76.109375 C 78.607206 75.955635 78.705699 75.830078 78.787109 75.830078 z M 48.414062 77.326172 C 48.473794 77.320804 48.527978 77.328208 48.572266 77.349609 C 49.025216 77.568429 48.893193 78.23794 48.345703 78.5 C 47.641033 78.83733 47.273436 78.802656 47.273438 78.398438 C 47.273438 77.998211 47.995942 77.363748 48.414062 77.326172 z M 78.738281 82.041016 C 78.846771 82.041016 78.935547 82.154356 78.935547 82.291016 C 78.935547 82.427646 78.846801 82.539063 78.738281 82.539062 C 78.629781 82.539062 78.541016 82.427646 78.541016 82.291016 C 78.541016 82.154356 78.629731 82.041016 78.738281 82.041016 z " />
  <path
     d="m 292.15111,36.364496 c 0.6,-1.38 -1.93,-5.94 -3.38,-6.11 -5.12,-0.6 -7,3.61 -7.42,7.82 -0.25,2.45 1.25,5.07 2.49,9.51 3.71,-4.77 6.74,-7.66 8.31,-11.22 z"
     fill="#fac60f"
     id="path8" />
  <path
     style="fill:#f3f3f3;fill-opacity:0.858209;stroke-width:0.128637"
     d="M 70.79508,82.326874 70.408344,82.038649 70.009185,63.11989 69.610049,44.20113 68.936665,44.59119 c -3.709211,2.148635 -4.113967,2.342663 -4.90726,2.352536 -0.953938,0.01116 -1.749206,-0.294792 -3.235854,-1.247822 -2.418016,-1.55003 -5.446768,-3.402714 -5.491052,-3.358853 -0.02575,0.02547 -0.743912,2.78871 -1.595734,6.140326 l -1.5488,6.093856 4.688012,4.082292 c 3.669447,3.195308 4.730496,4.187437 4.883493,4.566213 0.446092,1.104339 0.291073,2.493745 -1.006067,9.017498 -0.667115,3.355193 -1.328406,6.539974 -1.469529,7.077295 -0.558379,2.126049 -1.447388,3.216888 -2.52848,3.102585 -0.730565,-0.07731 -1.153315,-0.3416 -1.517587,-0.948967 -0.429522,-0.716151 -0.53191,-2.60863 -0.281624,-5.204369 0.106213,-1.100781 0.345353,-3.563938 0.531587,-5.473686 0.186181,-1.909748 0.338479,-3.506114 0.338279,-3.547494 -3.58e-4,-0.08513 -0.551627,-0.493375 -7.116902,-5.271508 -4.996329,-3.636221 -5.790722,-4.337603 -6.568045,-5.798887 -0.363497,-0.683309 -0.45244,-1.019903 -0.522615,-1.978094 -0.04648,-0.635048 -0.02249,-1.558252 0.05548,-2.051536 0.108462,-0.695195 2.375407,-8.684744 4.574827,-16.123479 0.262857,-0.889065 0.989426,-1.606445 1.724263,-1.70252 0.728917,-0.09518 7.25538,1.427189 8.058919,1.879988 0.558576,0.314743 1.409498,0.846143 6.031836,3.766902 l 2.593577,1.63882 0.627656,-0.25214 c 0.345228,-0.138747 1.459007,-0.618984 2.475071,-1.067382 l 1.847371,-0.815265 0.005,-2.150489 0.005,-2.150515 0.437969,-0.36088 c 0.605686,-0.499116 1.344949,-0.509436 1.967778,-0.02748 l 0.450391,0.348501 0.09422,1.499313 c 0.07922,1.258121 0.126956,1.489994 0.297319,1.441487 0.111709,-0.03173 0.586067,-0.08423 1.054203,-0.116403 0.817682,-0.0563 0.869713,-0.04246 1.324527,0.351674 1.124603,0.974793 0.717871,1.950702 -1.421469,3.410646 l -1.151793,0.785996 0.34243,19.56422 c 0.247912,14.16974 0.301791,19.638064 0.195181,19.832022 -0.41168,0.748617 -1.655838,0.973744 -2.383679,0.43135 z M 34.058132,81.917239 c -1.103606,-0.379826 -0.764453,-1.781365 1.550827,-6.408419 1.495893,-2.98953 3.679267,-7.593992 4.036468,-8.512393 0.117708,-0.302789 0.406658,-1.949342 0.641945,-3.659031 0.557879,-4.053268 0.492803,-3.815699 0.866195,-3.162418 0.416852,0.729314 2.770268,2.731002 4.55456,3.873901 0.813462,0.521034 1.480374,1.024729 1.482024,1.119351 0.0016,0.09451 -0.229668,0.886874 -0.513792,1.760609 -0.587893,1.807083 -0.722569,2.032456 -4.343885,7.269198 -3.101725,4.485378 -3.721382,5.296241 -4.872148,6.375531 -1.328778,1.246257 -2.426065,1.679617 -3.402194,1.343671 z M 33.114219,51.328315 c -2.748274,-0.621151 -4.73637,-1.684466 -5.487281,-2.934768 -1.270075,-2.114765 1.218495,-7.248215 5.845828,-12.058905 2.083088,-2.165617 4.399764,-3.301478 6.828254,-3.34793 2.605624,-0.04982 3.353312,1.141336 2.437061,3.882638 -2.022658,6.051672 -4.19806,12.386206 -4.356382,12.685463 -0.344403,0.650912 -1.252654,1.40507 -2.013435,1.671865 -0.849572,0.297918 -2.199119,0.340056 -3.254045,0.101658 z m 21.25016,-19.306117 c -2.64161,-0.140761 -5.002424,-1.855613 -5.713872,-4.150572 -0.599461,-1.933722 0.0019,-3.976609 1.606657,-5.4574 3.86373,-3.565392 10.714226,-1.133671 10.807216,3.836209 0.04549,2.427921 -1.692574,4.688808 -4.204458,5.469422 -0.601137,0.186784 -1.842048,0.337151 -2.495543,0.302341 z"
     id="path6243" />
  <text
     xml:space="preserve"
     style="font-style:normal;font-weight:normal;font-size:35.7011px;line-height:1.25;font-family:sans-serif;fill:#1c1b40;fill-opacity:1;stroke:none;stroke-width:0.892528;"
     x="106.66159"
     y="59.146622"
     id="text6267"
     transform="scale(0.98752314,1.0126345)"><tspan
       sodipodi:role="line"
       x="106.66159"
       y="59.146622"
       style="font-style:normal;font-variant:normal;font-weight:normal;font-stretch:normal;font-family:umbrage;-inkscape-font-specification:umbrage;fill:#1c1b40;fill-opacity:1;stroke-width:0.892528;"
       id="tspan836">HIKE TRAVEL</tspan></text>
</svg>
